<mxfile host="app.diagrams.net" modified="2023-04-20T22:45:13.844Z" agent="Mozilla/5.0 (Windows NT 10.0; Win64; x64) AppleWebKit/537.36 (KHTML, like Gecko) Chrome/111.0.0.0 Safari/537.36" etag="8tP0wXcQeqHcWP1eICEx" version="21.1.9" type="device" pages="3">
  <diagram name="Principal" id="03018318-947c-dd8e-b7a3-06fadd420f32">
    <mxGraphModel dx="2534" dy="749" grid="1" gridSize="10" guides="1" tooltips="1" connect="1" arrows="1" fold="1" page="1" pageScale="1" pageWidth="1100" pageHeight="850" background="#ffffff" math="0" shadow="0">
      <root>
        <mxCell id="0" />
        <mxCell id="1" parent="0" />
        <mxCell id="fOFXtclX4T8njCATtERM-1" value="" style="strokeWidth=1;shadow=0;dashed=0;align=center;html=1;shape=mxgraph.mockup.containers.browserWindow;rSize=0;strokeColor=#666666;strokeColor2=#008cff;strokeColor3=#c4c4c4;mainText=,;recursiveResize=0;" parent="1" vertex="1">
          <mxGeometry x="50" y="30" width="1020" height="2020" as="geometry" />
        </mxCell>
        <mxCell id="fOFXtclX4T8njCATtERM-2" value="Page 1" style="strokeWidth=1;shadow=0;dashed=0;align=center;html=1;shape=mxgraph.mockup.containers.anchor;fontSize=17;fontColor=#666666;align=left;whiteSpace=wrap;" parent="fOFXtclX4T8njCATtERM-1" vertex="1">
          <mxGeometry x="60" y="12" width="110" height="26" as="geometry" />
        </mxCell>
        <mxCell id="fOFXtclX4T8njCATtERM-3" value="https://www.draw.io" style="strokeWidth=1;shadow=0;dashed=0;align=center;html=1;shape=mxgraph.mockup.containers.anchor;rSize=0;fontSize=17;fontColor=#666666;align=left;" parent="fOFXtclX4T8njCATtERM-1" vertex="1">
          <mxGeometry x="130" y="60" width="250" height="26" as="geometry" />
        </mxCell>
        <mxCell id="nnJ4d_0iZRLGCl8bqzut-1" value="" style="rounded=0;whiteSpace=wrap;html=1;fillColor=#fff2cc;strokeColor=#d6b656;" parent="fOFXtclX4T8njCATtERM-1" vertex="1">
          <mxGeometry y="110" width="1020" height="80" as="geometry" />
        </mxCell>
        <mxCell id="nnJ4d_0iZRLGCl8bqzut-2" value="" style="image;html=1;image=img/lib/atlassian/Atlassian_Logo.svg;" parent="fOFXtclX4T8njCATtERM-1" vertex="1">
          <mxGeometry x="40" y="123.5" width="50" height="53" as="geometry" />
        </mxCell>
        <mxCell id="nnJ4d_0iZRLGCl8bqzut-3" value="Ofertas" style="text;html=1;strokeColor=none;fillColor=none;align=center;verticalAlign=middle;whiteSpace=wrap;rounded=0;fontSize=16;fontStyle=1;fontColor=#3399FF;" parent="fOFXtclX4T8njCATtERM-1" vertex="1">
          <mxGeometry x="580" y="140" width="70" height="30" as="geometry" />
        </mxCell>
        <mxCell id="nnJ4d_0iZRLGCl8bqzut-4" value="Marcas" style="text;html=1;strokeColor=none;fillColor=none;align=center;verticalAlign=middle;whiteSpace=wrap;rounded=0;fontSize=16;fontStyle=1;fontColor=#3399FF;" parent="fOFXtclX4T8njCATtERM-1" vertex="1">
          <mxGeometry x="670" y="140" width="70" height="30" as="geometry" />
        </mxCell>
        <mxCell id="nnJ4d_0iZRLGCl8bqzut-5" value="Servicios" style="text;html=1;strokeColor=none;fillColor=none;align=center;verticalAlign=middle;whiteSpace=wrap;rounded=0;fontSize=16;fontStyle=1;fontColor=#3399FF;" parent="fOFXtclX4T8njCATtERM-1" vertex="1">
          <mxGeometry x="770" y="140" width="70" height="30" as="geometry" />
        </mxCell>
        <mxCell id="nnJ4d_0iZRLGCl8bqzut-6" value="Contacto" style="text;html=1;strokeColor=none;fillColor=none;align=center;verticalAlign=middle;whiteSpace=wrap;rounded=0;fontSize=16;fontStyle=1;fontColor=#3399FF;" parent="fOFXtclX4T8njCATtERM-1" vertex="1">
          <mxGeometry x="870" y="140" width="70" height="30" as="geometry" />
        </mxCell>
        <mxCell id="nnJ4d_0iZRLGCl8bqzut-9" value="" style="rounded=0;whiteSpace=wrap;html=1;" parent="fOFXtclX4T8njCATtERM-1" vertex="1">
          <mxGeometry x="20" y="520" width="970" height="60" as="geometry" />
        </mxCell>
        <mxCell id="nnJ4d_0iZRLGCl8bqzut-10" value="" style="ellipse;whiteSpace=wrap;html=1;aspect=fixed;" parent="fOFXtclX4T8njCATtERM-1" vertex="1">
          <mxGeometry x="150" y="530" width="40" height="40" as="geometry" />
        </mxCell>
        <mxCell id="nnJ4d_0iZRLGCl8bqzut-11" value="" style="ellipse;whiteSpace=wrap;html=1;aspect=fixed;" parent="fOFXtclX4T8njCATtERM-1" vertex="1">
          <mxGeometry x="270" y="530" width="40" height="40" as="geometry" />
        </mxCell>
        <mxCell id="nnJ4d_0iZRLGCl8bqzut-12" value="" style="ellipse;whiteSpace=wrap;html=1;aspect=fixed;" parent="fOFXtclX4T8njCATtERM-1" vertex="1">
          <mxGeometry x="400" y="530" width="40" height="40" as="geometry" />
        </mxCell>
        <mxCell id="nnJ4d_0iZRLGCl8bqzut-13" value="" style="ellipse;whiteSpace=wrap;html=1;aspect=fixed;" parent="fOFXtclX4T8njCATtERM-1" vertex="1">
          <mxGeometry x="540" y="530" width="40" height="40" as="geometry" />
        </mxCell>
        <mxCell id="nnJ4d_0iZRLGCl8bqzut-14" value="" style="ellipse;whiteSpace=wrap;html=1;aspect=fixed;" parent="fOFXtclX4T8njCATtERM-1" vertex="1">
          <mxGeometry x="670" y="530" width="40" height="40" as="geometry" />
        </mxCell>
        <mxCell id="nnJ4d_0iZRLGCl8bqzut-15" value="" style="ellipse;whiteSpace=wrap;html=1;aspect=fixed;" parent="fOFXtclX4T8njCATtERM-1" vertex="1">
          <mxGeometry x="800" y="530" width="40" height="40" as="geometry" />
        </mxCell>
        <mxCell id="sx2c847eaBi_9r9Oa0tZ-4" value="" style="rounded=0;whiteSpace=wrap;html=1;fillColor=#dae8fc;strokeColor=#6c8ebf;" parent="fOFXtclX4T8njCATtERM-1" vertex="1">
          <mxGeometry y="650" width="1020" height="430" as="geometry" />
        </mxCell>
        <mxCell id="sx2c847eaBi_9r9Oa0tZ-5" value="Marcas" style="text;html=1;strokeColor=none;fillColor=none;align=center;verticalAlign=middle;whiteSpace=wrap;rounded=0;fontSize=22;fontStyle=1" parent="fOFXtclX4T8njCATtERM-1" vertex="1">
          <mxGeometry x="455" y="670" width="90" height="30" as="geometry" />
        </mxCell>
        <mxCell id="sx2c847eaBi_9r9Oa0tZ-6" value="" style="html=1;shadow=0;dashed=0;shape=mxgraph.bootstrap.rrect;rSize=5;strokeColor=#DFDFDF;html=1;whiteSpace=wrap;fillColor=#ffffff;fontColor=#000000;verticalAlign=bottom;align=left;spacing=20;spacingBottom=130;fontSize=14;" parent="fOFXtclX4T8njCATtERM-1" vertex="1">
          <mxGeometry x="70" y="720" width="250" height="320" as="geometry" />
        </mxCell>
        <mxCell id="sx2c847eaBi_9r9Oa0tZ-7" value="Image cap" style="html=1;shadow=0;dashed=0;shape=mxgraph.bootstrap.topButton;rSize=5;perimeter=none;whiteSpace=wrap;fillColor=#868E96;strokeColor=#DFDFDF;fontColor=#DEE2E6;resizeWidth=1;fontSize=18;" parent="sx2c847eaBi_9r9Oa0tZ-6" vertex="1">
          <mxGeometry width="250" height="180" relative="1" as="geometry" />
        </mxCell>
        <mxCell id="sx2c847eaBi_9r9Oa0tZ-8" value="&lt;b&gt;&lt;font style=&quot;font-size: 20px&quot;&gt;Card title&lt;/font&gt;&lt;/b&gt;&lt;br style=&quot;font-size: 14px&quot;&gt;&lt;br style=&quot;font-size: 14px&quot;&gt;Some quick example text to build on the card title and make up" style="perimeter=none;html=1;whiteSpace=wrap;fillColor=none;strokeColor=none;resizeWidth=1;verticalAlign=top;align=left;spacing=20;spacingTop=-10;fontSize=14;" parent="sx2c847eaBi_9r9Oa0tZ-6" vertex="1">
          <mxGeometry width="250" height="120" relative="1" as="geometry">
            <mxPoint y="180" as="offset" />
          </mxGeometry>
        </mxCell>
        <mxCell id="sx2c847eaBi_9r9Oa0tZ-12" value="Card link" style="html=1;shadow=0;dashed=0;shape=mxgraph.bootstrap.rrect;rSize=5;perimeter=none;whiteSpace=wrap;fillColor=none;strokeColor=none;fontColor=#0085FC;resizeWidth=1;fontSize=14;align=center;" parent="sx2c847eaBi_9r9Oa0tZ-6" vertex="1">
          <mxGeometry y="1" width="80" height="40" relative="1" as="geometry">
            <mxPoint x="10" y="-50" as="offset" />
          </mxGeometry>
        </mxCell>
        <mxCell id="sx2c847eaBi_9r9Oa0tZ-13" value="Another link" style="html=1;shadow=0;dashed=0;shape=mxgraph.bootstrap.rrect;rSize=5;perimeter=none;whiteSpace=wrap;fillColor=none;strokeColor=none;fontColor=#0085FC;resizeWidth=1;fontSize=14;align=center;" parent="sx2c847eaBi_9r9Oa0tZ-6" vertex="1">
          <mxGeometry y="1" width="100" height="40" relative="1" as="geometry">
            <mxPoint x="100" y="-50" as="offset" />
          </mxGeometry>
        </mxCell>
        <mxCell id="sx2c847eaBi_9r9Oa0tZ-15" value="" style="html=1;shadow=0;dashed=0;shape=mxgraph.bootstrap.rrect;rSize=5;strokeColor=#DFDFDF;html=1;whiteSpace=wrap;fillColor=#ffffff;fontColor=#000000;verticalAlign=bottom;align=left;spacing=20;spacingBottom=130;fontSize=14;" parent="fOFXtclX4T8njCATtERM-1" vertex="1">
          <mxGeometry x="370" y="720" width="250" height="320" as="geometry" />
        </mxCell>
        <mxCell id="sx2c847eaBi_9r9Oa0tZ-16" value="Image cap" style="html=1;shadow=0;dashed=0;shape=mxgraph.bootstrap.topButton;rSize=5;perimeter=none;whiteSpace=wrap;fillColor=#868E96;strokeColor=#DFDFDF;fontColor=#DEE2E6;resizeWidth=1;fontSize=18;" parent="sx2c847eaBi_9r9Oa0tZ-15" vertex="1">
          <mxGeometry width="250" height="180" relative="1" as="geometry" />
        </mxCell>
        <mxCell id="sx2c847eaBi_9r9Oa0tZ-17" value="&lt;b&gt;&lt;font style=&quot;font-size: 20px&quot;&gt;Card title&lt;/font&gt;&lt;/b&gt;&lt;br style=&quot;font-size: 14px&quot;&gt;&lt;br style=&quot;font-size: 14px&quot;&gt;Some quick example text to build on the card title and make up" style="perimeter=none;html=1;whiteSpace=wrap;fillColor=none;strokeColor=none;resizeWidth=1;verticalAlign=top;align=left;spacing=20;spacingTop=-10;fontSize=14;" parent="sx2c847eaBi_9r9Oa0tZ-15" vertex="1">
          <mxGeometry width="250" height="120" relative="1" as="geometry">
            <mxPoint y="180" as="offset" />
          </mxGeometry>
        </mxCell>
        <mxCell id="sx2c847eaBi_9r9Oa0tZ-18" value="Card link" style="html=1;shadow=0;dashed=0;shape=mxgraph.bootstrap.rrect;rSize=5;perimeter=none;whiteSpace=wrap;fillColor=none;strokeColor=none;fontColor=#0085FC;resizeWidth=1;fontSize=14;align=center;" parent="sx2c847eaBi_9r9Oa0tZ-15" vertex="1">
          <mxGeometry y="1" width="80" height="40" relative="1" as="geometry">
            <mxPoint x="10" y="-50" as="offset" />
          </mxGeometry>
        </mxCell>
        <mxCell id="sx2c847eaBi_9r9Oa0tZ-19" value="Another link" style="html=1;shadow=0;dashed=0;shape=mxgraph.bootstrap.rrect;rSize=5;perimeter=none;whiteSpace=wrap;fillColor=none;strokeColor=none;fontColor=#0085FC;resizeWidth=1;fontSize=14;align=center;" parent="sx2c847eaBi_9r9Oa0tZ-15" vertex="1">
          <mxGeometry y="1" width="100" height="40" relative="1" as="geometry">
            <mxPoint x="100" y="-50" as="offset" />
          </mxGeometry>
        </mxCell>
        <mxCell id="sx2c847eaBi_9r9Oa0tZ-20" value="" style="html=1;shadow=0;dashed=0;shape=mxgraph.bootstrap.rrect;rSize=5;strokeColor=#DFDFDF;html=1;whiteSpace=wrap;fillColor=#ffffff;fontColor=#000000;verticalAlign=bottom;align=left;spacing=20;spacingBottom=130;fontSize=14;" parent="fOFXtclX4T8njCATtERM-1" vertex="1">
          <mxGeometry x="670" y="720" width="250" height="320" as="geometry" />
        </mxCell>
        <mxCell id="sx2c847eaBi_9r9Oa0tZ-21" value="Image cap" style="html=1;shadow=0;dashed=0;shape=mxgraph.bootstrap.topButton;rSize=5;perimeter=none;whiteSpace=wrap;fillColor=#868E96;strokeColor=#DFDFDF;fontColor=#DEE2E6;resizeWidth=1;fontSize=18;" parent="sx2c847eaBi_9r9Oa0tZ-20" vertex="1">
          <mxGeometry width="250" height="180" relative="1" as="geometry" />
        </mxCell>
        <mxCell id="sx2c847eaBi_9r9Oa0tZ-22" value="&lt;b&gt;&lt;font style=&quot;font-size: 20px&quot;&gt;Card title&lt;/font&gt;&lt;/b&gt;&lt;br style=&quot;font-size: 14px&quot;&gt;&lt;br style=&quot;font-size: 14px&quot;&gt;Some quick example text to build on the card title and make up" style="perimeter=none;html=1;whiteSpace=wrap;fillColor=none;strokeColor=none;resizeWidth=1;verticalAlign=top;align=left;spacing=20;spacingTop=-10;fontSize=14;" parent="sx2c847eaBi_9r9Oa0tZ-20" vertex="1">
          <mxGeometry width="250" height="120" relative="1" as="geometry">
            <mxPoint y="180" as="offset" />
          </mxGeometry>
        </mxCell>
        <mxCell id="sx2c847eaBi_9r9Oa0tZ-23" value="Card link" style="html=1;shadow=0;dashed=0;shape=mxgraph.bootstrap.rrect;rSize=5;perimeter=none;whiteSpace=wrap;fillColor=none;strokeColor=none;fontColor=#0085FC;resizeWidth=1;fontSize=14;align=center;" parent="sx2c847eaBi_9r9Oa0tZ-20" vertex="1">
          <mxGeometry y="1" width="80" height="40" relative="1" as="geometry">
            <mxPoint x="10" y="-50" as="offset" />
          </mxGeometry>
        </mxCell>
        <mxCell id="sx2c847eaBi_9r9Oa0tZ-24" value="Another link" style="html=1;shadow=0;dashed=0;shape=mxgraph.bootstrap.rrect;rSize=5;perimeter=none;whiteSpace=wrap;fillColor=none;strokeColor=none;fontColor=#0085FC;resizeWidth=1;fontSize=14;align=center;" parent="sx2c847eaBi_9r9Oa0tZ-20" vertex="1">
          <mxGeometry y="1" width="100" height="40" relative="1" as="geometry">
            <mxPoint x="100" y="-50" as="offset" />
          </mxGeometry>
        </mxCell>
        <mxCell id="sx2c847eaBi_9r9Oa0tZ-27" value="" style="rounded=0;whiteSpace=wrap;html=1;" parent="fOFXtclX4T8njCATtERM-1" vertex="1">
          <mxGeometry y="1080" width="1000" height="800" as="geometry" />
        </mxCell>
        <mxCell id="sx2c847eaBi_9r9Oa0tZ-30" value="" style="rounded=0;whiteSpace=wrap;html=1;" parent="fOFXtclX4T8njCATtERM-1" vertex="1">
          <mxGeometry y="1080" width="390" height="400" as="geometry" />
        </mxCell>
        <mxCell id="sx2c847eaBi_9r9Oa0tZ-31" value="" style="rounded=0;whiteSpace=wrap;html=1;" parent="fOFXtclX4T8njCATtERM-1" vertex="1">
          <mxGeometry x="390" y="1080" width="630" height="400" as="geometry" />
        </mxCell>
        <mxCell id="sx2c847eaBi_9r9Oa0tZ-32" value="" style="rounded=0;whiteSpace=wrap;html=1;" parent="fOFXtclX4T8njCATtERM-1" vertex="1">
          <mxGeometry y="1480" width="610" height="400" as="geometry" />
        </mxCell>
        <mxCell id="sx2c847eaBi_9r9Oa0tZ-33" value="" style="rounded=0;whiteSpace=wrap;html=1;" parent="fOFXtclX4T8njCATtERM-1" vertex="1">
          <mxGeometry x="610" y="1480" width="410" height="400" as="geometry" />
        </mxCell>
        <mxCell id="sx2c847eaBi_9r9Oa0tZ-36" value="&lt;h1&gt;Servicio 1&lt;/h1&gt;&lt;p&gt;Lorem ipsum dolor sit amet, consectetur adipisicing elit, sed do eiusmod tempor incididunt ut labore et dolore magna aliqua.&lt;/p&gt;" style="text;html=1;strokeColor=none;fillColor=none;spacing=5;spacingTop=-20;whiteSpace=wrap;overflow=hidden;rounded=0;" parent="fOFXtclX4T8njCATtERM-1" vertex="1">
          <mxGeometry x="100" y="1180" width="190" height="170" as="geometry" />
        </mxCell>
        <mxCell id="sx2c847eaBi_9r9Oa0tZ-37" value="&lt;h1&gt;Servicio 2&lt;/h1&gt;&lt;p&gt;Lorem ipsum dolor sit amet, consectetur adipisicing elit, sed do eiusmod tempor incididunt ut labore et dolore magna aliqua.&lt;/p&gt;" style="text;html=1;strokeColor=none;fillColor=none;spacing=5;spacingTop=-20;whiteSpace=wrap;overflow=hidden;rounded=0;" parent="fOFXtclX4T8njCATtERM-1" vertex="1">
          <mxGeometry x="710" y="1590" width="190" height="130" as="geometry" />
        </mxCell>
        <mxCell id="sx2c847eaBi_9r9Oa0tZ-38" value="" style="image;html=1;points=[];align=center;fontSize=12;image=img/lib/azure2/general/Image.svg;" parent="fOFXtclX4T8njCATtERM-1" vertex="1">
          <mxGeometry x="380" y="1094.36" width="630" height="371.27" as="geometry" />
        </mxCell>
        <mxCell id="sx2c847eaBi_9r9Oa0tZ-39" value="" style="image;html=1;points=[];align=center;fontSize=12;image=img/lib/azure2/general/Image.svg;" parent="fOFXtclX4T8njCATtERM-1" vertex="1">
          <mxGeometry x="-10" y="1490" width="630" height="371.27" as="geometry" />
        </mxCell>
        <mxCell id="sx2c847eaBi_9r9Oa0tZ-40" value="" style="rounded=0;whiteSpace=wrap;html=1;fillColor=#fff2cc;strokeColor=#d6b656;" parent="fOFXtclX4T8njCATtERM-1" vertex="1">
          <mxGeometry y="1880" width="1020" height="140" as="geometry" />
        </mxCell>
        <mxCell id="sx2c847eaBi_9r9Oa0tZ-41" value="" style="shape=image;html=1;verticalAlign=top;verticalLabelPosition=bottom;labelBackgroundColor=#ffffff;imageAspect=0;aspect=fixed;image=https://cdn3.iconfinder.com/data/icons/2018-social-media-logotypes/1000/2018_social_media_popular_app_logo_instagram-128.png" parent="fOFXtclX4T8njCATtERM-1" vertex="1">
          <mxGeometry x="100" y="1925" width="40" height="40" as="geometry" />
        </mxCell>
        <mxCell id="sx2c847eaBi_9r9Oa0tZ-42" value="" style="shape=image;html=1;verticalAlign=top;verticalLabelPosition=bottom;labelBackgroundColor=#ffffff;imageAspect=0;aspect=fixed;image=https://cdn3.iconfinder.com/data/icons/2018-social-media-logotypes/1000/2018_social_media_popular_app_logo-whatsapp-128.png" parent="fOFXtclX4T8njCATtERM-1" vertex="1">
          <mxGeometry x="150" y="1925" width="40" height="40" as="geometry" />
        </mxCell>
        <mxCell id="sx2c847eaBi_9r9Oa0tZ-47" value="" style="shape=image;html=1;verticalAlign=top;verticalLabelPosition=bottom;labelBackgroundColor=#ffffff;imageAspect=0;aspect=fixed;image=https://cdn3.iconfinder.com/data/icons/2018-social-media-logotypes/1000/2018_social_media_popular_app_logo_facebook-128.png" parent="fOFXtclX4T8njCATtERM-1" vertex="1">
          <mxGeometry x="200" y="1925" width="40" height="40" as="geometry" />
        </mxCell>
        <mxCell id="sx2c847eaBi_9r9Oa0tZ-49" value="" style="shape=image;html=1;verticalAlign=top;verticalLabelPosition=bottom;labelBackgroundColor=#ffffff;imageAspect=0;aspect=fixed;image=https://cdn4.iconfinder.com/data/icons/evil-icons-user-interface/64/share-128.png" parent="fOFXtclX4T8njCATtERM-1" vertex="1">
          <mxGeometry x="45" y="1925" width="40" height="40" as="geometry" />
        </mxCell>
        <mxCell id="sx2c847eaBi_9r9Oa0tZ-48" value="" style="shape=image;html=1;verticalAlign=top;verticalLabelPosition=bottom;labelBackgroundColor=#ffffff;imageAspect=0;aspect=fixed;image=https://cdn3.iconfinder.com/data/icons/2018-social-media-logotypes/1000/2018_social_media_popular_app_logo_twitter-128.png" parent="fOFXtclX4T8njCATtERM-1" vertex="1">
          <mxGeometry x="250" y="1925" width="40" height="40" as="geometry" />
        </mxCell>
        <mxCell id="sx2c847eaBi_9r9Oa0tZ-51" value="copyright @ 2023 -&amp;nbsp; by Edu" style="text;html=1;strokeColor=none;fillColor=none;align=center;verticalAlign=middle;whiteSpace=wrap;rounded=0;" parent="fOFXtclX4T8njCATtERM-1" vertex="1">
          <mxGeometry x="440" y="1925" width="200" height="30" as="geometry" />
        </mxCell>
        <mxCell id="sx2c847eaBi_9r9Oa0tZ-52" value="" style="verticalLabelPosition=bottom;shadow=0;dashed=0;align=center;html=1;verticalAlign=top;strokeWidth=1;shape=mxgraph.mockup.misc.map;" parent="fOFXtclX4T8njCATtERM-1" vertex="1">
          <mxGeometry x="850" y="1900" width="120" height="100" as="geometry" />
        </mxCell>
        <mxCell id="nnJ4d_0iZRLGCl8bqzut-7" value="" style="verticalLabelPosition=bottom;shadow=0;dashed=0;align=center;html=1;verticalAlign=top;strokeWidth=1;shape=mxgraph.mockup.navigation.coverFlow;strokeColor=#999999;" parent="1" vertex="1">
          <mxGeometry x="80" y="240" width="950" height="270" as="geometry" />
        </mxCell>
        <mxCell id="nnJ4d_0iZRLGCl8bqzut-16" value="Nombre de Oferta" style="text;html=1;strokeColor=none;fillColor=none;align=center;verticalAlign=middle;whiteSpace=wrap;rounded=0;" parent="1" vertex="1">
          <mxGeometry x="420" y="250" width="60" height="30" as="geometry" />
        </mxCell>
        <mxCell id="nnJ4d_0iZRLGCl8bqzut-18" value="% de descuento" style="text;html=1;strokeColor=none;fillColor=none;align=center;verticalAlign=middle;whiteSpace=wrap;rounded=0;fontStyle=1;fontSize=22;" parent="1" vertex="1">
          <mxGeometry x="620" y="460" width="60" height="30" as="geometry" />
        </mxCell>
        <mxCell id="nnJ4d_0iZRLGCl8bqzut-19" value="Fecha limite" style="text;html=1;strokeColor=none;fillColor=none;align=center;verticalAlign=middle;whiteSpace=wrap;rounded=0;" parent="1" vertex="1">
          <mxGeometry x="420" y="450" width="60" height="30" as="geometry" />
        </mxCell>
        <mxCell id="nnJ4d_0iZRLGCl8bqzut-20" value="" style="verticalLabelPosition=bottom;shadow=0;dashed=0;align=center;html=1;verticalAlign=top;strokeWidth=1;shape=mxgraph.mockup.graphics.simpleIcon;strokeColor=#999999;" parent="1" vertex="1">
          <mxGeometry x="480" y="290" width="160" height="150" as="geometry" />
        </mxCell>
        <mxCell id="I8qNwtzNzXv5pJLY7xHE-1" value="Esta seccion va a tratar de mostrar las ofertas de interes general" style="rounded=0;whiteSpace=wrap;html=1;fillColor=#dae8fc;strokeColor=#6c8ebf;" vertex="1" parent="1">
          <mxGeometry x="-120" y="330" width="120" height="60" as="geometry" />
        </mxCell>
        <mxCell id="I8qNwtzNzXv5pJLY7xHE-2" value="" style="curved=1;endArrow=classic;html=1;rounded=0;" edge="1" parent="1">
          <mxGeometry width="50" height="50" relative="1" as="geometry">
            <mxPoint y="360" as="sourcePoint" />
            <mxPoint x="50" y="310" as="targetPoint" />
            <Array as="points">
              <mxPoint x="50" y="360" />
              <mxPoint y="310" />
            </Array>
          </mxGeometry>
        </mxCell>
      </root>
    </mxGraphModel>
  </diagram>
  <diagram id="O2b_LQp2YAmO5TeUM5qm" name="Contacto">
    <mxGraphModel dx="1434" dy="749" grid="1" gridSize="10" guides="1" tooltips="1" connect="1" arrows="1" fold="1" page="1" pageScale="1" pageWidth="827" pageHeight="1169" math="0" shadow="0">
      <root>
        <mxCell id="0" />
        <mxCell id="1" parent="0" />
        <mxCell id="CD5EOyrNC-HjQ6tkVlGD-1" value="" style="strokeWidth=1;shadow=0;dashed=0;align=center;html=1;shape=mxgraph.mockup.containers.browserWindow;rSize=0;strokeColor=#666666;strokeColor2=#008cff;strokeColor3=#c4c4c4;mainText=,;recursiveResize=0;fontFamily=https://fonts.googleapis.com/css2?family=Rubik+Pixels&amp;display=swap;fontSource=https%3A%2F%2Ffonts.googleapis.com%2Fcss%3Ffamily%3Dhttps%253A%252F%252Ffonts.googleapis.com%252Fcss2%253Ffamily%253DRubik%252BPixels%2526display%253Dswap;" parent="1" vertex="1">
          <mxGeometry x="50" y="30" width="1020" height="1040" as="geometry" />
        </mxCell>
        <mxCell id="CD5EOyrNC-HjQ6tkVlGD-2" value="Page 1" style="strokeWidth=1;shadow=0;dashed=0;align=center;html=1;shape=mxgraph.mockup.containers.anchor;fontSize=17;fontColor=#666666;align=left;whiteSpace=wrap;" parent="CD5EOyrNC-HjQ6tkVlGD-1" vertex="1">
          <mxGeometry x="60" y="12" width="110" height="26" as="geometry" />
        </mxCell>
        <mxCell id="CD5EOyrNC-HjQ6tkVlGD-3" value="https://www.draw.io" style="strokeWidth=1;shadow=0;dashed=0;align=center;html=1;shape=mxgraph.mockup.containers.anchor;rSize=0;fontSize=17;fontColor=#666666;align=left;" parent="CD5EOyrNC-HjQ6tkVlGD-1" vertex="1">
          <mxGeometry x="130" y="60" width="250" height="26" as="geometry" />
        </mxCell>
        <mxCell id="CD5EOyrNC-HjQ6tkVlGD-4" value="" style="rounded=0;whiteSpace=wrap;html=1;fillColor=#fff2cc;strokeColor=#d6b656;" parent="CD5EOyrNC-HjQ6tkVlGD-1" vertex="1">
          <mxGeometry y="110" width="1020" height="80" as="geometry" />
        </mxCell>
        <mxCell id="CD5EOyrNC-HjQ6tkVlGD-5" value="" style="image;html=1;image=img/lib/atlassian/Atlassian_Logo.svg;" parent="CD5EOyrNC-HjQ6tkVlGD-1" vertex="1">
          <mxGeometry x="40" y="123.5" width="50" height="53" as="geometry" />
        </mxCell>
        <mxCell id="CD5EOyrNC-HjQ6tkVlGD-9" value="Home" style="text;html=1;strokeColor=none;fillColor=none;align=center;verticalAlign=middle;whiteSpace=wrap;rounded=0;fontSize=16;fontStyle=1;fontColor=#3399FF;" parent="CD5EOyrNC-HjQ6tkVlGD-1" vertex="1">
          <mxGeometry x="870" y="140" width="70" height="30" as="geometry" />
        </mxCell>
        <mxCell id="CD5EOyrNC-HjQ6tkVlGD-43" value="" style="rounded=0;whiteSpace=wrap;html=1;fillColor=#fff2cc;strokeColor=#d6b656;" parent="CD5EOyrNC-HjQ6tkVlGD-1" vertex="1">
          <mxGeometry y="900" width="1020" height="140" as="geometry" />
        </mxCell>
        <mxCell id="CD5EOyrNC-HjQ6tkVlGD-44" value="" style="shape=image;html=1;verticalAlign=top;verticalLabelPosition=bottom;labelBackgroundColor=#ffffff;imageAspect=0;aspect=fixed;image=https://cdn3.iconfinder.com/data/icons/2018-social-media-logotypes/1000/2018_social_media_popular_app_logo_instagram-128.png" parent="CD5EOyrNC-HjQ6tkVlGD-1" vertex="1">
          <mxGeometry x="100" y="945" width="40" height="40" as="geometry" />
        </mxCell>
        <mxCell id="CD5EOyrNC-HjQ6tkVlGD-45" value="" style="shape=image;html=1;verticalAlign=top;verticalLabelPosition=bottom;labelBackgroundColor=#ffffff;imageAspect=0;aspect=fixed;image=https://cdn3.iconfinder.com/data/icons/2018-social-media-logotypes/1000/2018_social_media_popular_app_logo-whatsapp-128.png" parent="CD5EOyrNC-HjQ6tkVlGD-1" vertex="1">
          <mxGeometry x="150" y="945" width="40" height="40" as="geometry" />
        </mxCell>
        <mxCell id="CD5EOyrNC-HjQ6tkVlGD-46" value="" style="shape=image;html=1;verticalAlign=top;verticalLabelPosition=bottom;labelBackgroundColor=#ffffff;imageAspect=0;aspect=fixed;image=https://cdn3.iconfinder.com/data/icons/2018-social-media-logotypes/1000/2018_social_media_popular_app_logo_facebook-128.png" parent="CD5EOyrNC-HjQ6tkVlGD-1" vertex="1">
          <mxGeometry x="200" y="945" width="40" height="40" as="geometry" />
        </mxCell>
        <mxCell id="CD5EOyrNC-HjQ6tkVlGD-47" value="" style="shape=image;html=1;verticalAlign=top;verticalLabelPosition=bottom;labelBackgroundColor=#ffffff;imageAspect=0;aspect=fixed;image=https://cdn4.iconfinder.com/data/icons/evil-icons-user-interface/64/share-128.png" parent="CD5EOyrNC-HjQ6tkVlGD-1" vertex="1">
          <mxGeometry x="45" y="945" width="40" height="40" as="geometry" />
        </mxCell>
        <mxCell id="CD5EOyrNC-HjQ6tkVlGD-48" value="" style="shape=image;html=1;verticalAlign=top;verticalLabelPosition=bottom;labelBackgroundColor=#ffffff;imageAspect=0;aspect=fixed;image=https://cdn3.iconfinder.com/data/icons/2018-social-media-logotypes/1000/2018_social_media_popular_app_logo_twitter-128.png" parent="CD5EOyrNC-HjQ6tkVlGD-1" vertex="1">
          <mxGeometry x="250" y="945" width="40" height="40" as="geometry" />
        </mxCell>
        <mxCell id="CD5EOyrNC-HjQ6tkVlGD-49" value="copyright @ 2023 -&amp;nbsp; by Edu" style="text;html=1;strokeColor=none;fillColor=none;align=center;verticalAlign=middle;whiteSpace=wrap;rounded=0;" parent="CD5EOyrNC-HjQ6tkVlGD-1" vertex="1">
          <mxGeometry x="440" y="945" width="200" height="30" as="geometry" />
        </mxCell>
        <mxCell id="CD5EOyrNC-HjQ6tkVlGD-50" value="" style="verticalLabelPosition=bottom;shadow=0;dashed=0;align=center;html=1;verticalAlign=top;strokeWidth=1;shape=mxgraph.mockup.misc.map;" parent="CD5EOyrNC-HjQ6tkVlGD-1" vertex="1">
          <mxGeometry x="850" y="920" width="120" height="100" as="geometry" />
        </mxCell>
        <mxCell id="CD5EOyrNC-HjQ6tkVlGD-56" value="" style="shape=singleArrow;direction=west;whiteSpace=wrap;html=1;" parent="CD5EOyrNC-HjQ6tkVlGD-1" vertex="1">
          <mxGeometry x="837" y="142.5" width="33" height="25" as="geometry" />
        </mxCell>
        <mxCell id="CD5EOyrNC-HjQ6tkVlGD-57" value="&lt;h1&gt;Contacto&lt;/h1&gt;&lt;p&gt;&lt;br&gt;&lt;/p&gt;" style="text;html=1;strokeColor=none;fillColor=none;spacing=5;spacingTop=-20;whiteSpace=wrap;overflow=hidden;rounded=0;fontFamily=Helvetica;fontColor=#3B90FF;" parent="CD5EOyrNC-HjQ6tkVlGD-1" vertex="1">
          <mxGeometry x="440" y="220" width="120" height="40" as="geometry" />
        </mxCell>
        <mxCell id="CD5EOyrNC-HjQ6tkVlGD-58" value="Email address" style="fillColor=none;strokeColor=none;align=left;fontSize=14;" parent="CD5EOyrNC-HjQ6tkVlGD-1" vertex="1">
          <mxGeometry x="130" y="290" width="260" height="40" as="geometry" />
        </mxCell>
        <mxCell id="CD5EOyrNC-HjQ6tkVlGD-59" value="name@example.com" style="html=1;shadow=0;dashed=0;shape=mxgraph.bootstrap.rrect;rSize=5;fillColor=none;strokeColor=#999999;align=left;spacing=15;fontSize=14;fontColor=#6C767D;" parent="CD5EOyrNC-HjQ6tkVlGD-1" vertex="1">
          <mxGeometry width="800" height="30" relative="1" as="geometry">
            <mxPoint x="130" y="350" as="offset" />
          </mxGeometry>
        </mxCell>
        <mxCell id="CD5EOyrNC-HjQ6tkVlGD-60" value="Example select" style="fillColor=none;strokeColor=none;align=left;fontSize=14;" parent="CD5EOyrNC-HjQ6tkVlGD-1" vertex="1">
          <mxGeometry width="260" height="40" relative="1" as="geometry">
            <mxPoint x="130" y="390" as="offset" />
          </mxGeometry>
        </mxCell>
        <mxCell id="CD5EOyrNC-HjQ6tkVlGD-61" value="1" style="html=1;shadow=0;dashed=0;shape=mxgraph.bootstrap.rrect;rSize=5;fillColor=none;strokeColor=#999999;align=left;spacing=15;fontSize=14;fontColor=#6C767D;" parent="CD5EOyrNC-HjQ6tkVlGD-1" vertex="1">
          <mxGeometry width="800" height="30" relative="1" as="geometry">
            <mxPoint x="130" y="430" as="offset" />
          </mxGeometry>
        </mxCell>
        <mxCell id="CD5EOyrNC-HjQ6tkVlGD-62" value="Example multiple select" style="fillColor=none;strokeColor=none;align=left;fontSize=14;" parent="CD5EOyrNC-HjQ6tkVlGD-1" vertex="1">
          <mxGeometry width="260" height="40" relative="1" as="geometry">
            <mxPoint x="130" y="470" as="offset" />
          </mxGeometry>
        </mxCell>
        <mxCell id="CD5EOyrNC-HjQ6tkVlGD-63" value="" style="html=1;shadow=0;dashed=0;shape=mxgraph.bootstrap.rrect;rSize=5;fillColor=none;strokeColor=#999999;align=left;spacing=15;fontSize=14;fontColor=#6C767D;" parent="CD5EOyrNC-HjQ6tkVlGD-1" vertex="1">
          <mxGeometry width="800" height="100" relative="1" as="geometry">
            <mxPoint x="130" y="510" as="offset" />
          </mxGeometry>
        </mxCell>
        <mxCell id="CD5EOyrNC-HjQ6tkVlGD-64" value="" style="html=1;shadow=0;dashed=0;shape=mxgraph.bootstrap.rightButton;rSize=5;fillColor=#F1F1F1;strokeColor=#999999;" parent="CD5EOyrNC-HjQ6tkVlGD-63" vertex="1">
          <mxGeometry x="1" width="20" height="100" relative="1" as="geometry">
            <mxPoint x="-20" as="offset" />
          </mxGeometry>
        </mxCell>
        <mxCell id="CD5EOyrNC-HjQ6tkVlGD-65" value="" style="fillColor=#C1C1C1;strokeColor=none;" parent="CD5EOyrNC-HjQ6tkVlGD-64" vertex="1">
          <mxGeometry width="16" height="45" relative="1" as="geometry">
            <mxPoint x="2" y="20" as="offset" />
          </mxGeometry>
        </mxCell>
        <mxCell id="CD5EOyrNC-HjQ6tkVlGD-66" value="" style="shape=triangle;direction=north;fillColor=#C1C1C1;strokeColor=none;perimeter=none;" parent="CD5EOyrNC-HjQ6tkVlGD-64" vertex="1">
          <mxGeometry width="10" height="5" relative="1" as="geometry">
            <mxPoint x="5" y="7.5" as="offset" />
          </mxGeometry>
        </mxCell>
        <mxCell id="CD5EOyrNC-HjQ6tkVlGD-67" value="" style="shape=triangle;direction=south;fillColor=#505050;strokeColor=none;perimeter=none;" parent="CD5EOyrNC-HjQ6tkVlGD-64" vertex="1">
          <mxGeometry y="1" width="10" height="5" relative="1" as="geometry">
            <mxPoint x="5" y="-12.5" as="offset" />
          </mxGeometry>
        </mxCell>
        <mxCell id="CD5EOyrNC-HjQ6tkVlGD-68" value="1" style="fillColor=none;strokeColor=none;align=left;spacing=15;fontSize=14;fontColor=#6C767D;" parent="CD5EOyrNC-HjQ6tkVlGD-63" vertex="1">
          <mxGeometry width="780" height="20" relative="1" as="geometry">
            <mxPoint y="10" as="offset" />
          </mxGeometry>
        </mxCell>
        <mxCell id="CD5EOyrNC-HjQ6tkVlGD-69" value="2" style="fillColor=none;strokeColor=none;align=left;spacing=15;fontSize=14;fontColor=#6C767D;" parent="CD5EOyrNC-HjQ6tkVlGD-63" vertex="1">
          <mxGeometry width="780" height="20" relative="1" as="geometry">
            <mxPoint y="30" as="offset" />
          </mxGeometry>
        </mxCell>
        <mxCell id="CD5EOyrNC-HjQ6tkVlGD-70" value="3" style="fillColor=none;strokeColor=none;align=left;spacing=15;fontSize=14;fontColor=#6C767D;" parent="CD5EOyrNC-HjQ6tkVlGD-63" vertex="1">
          <mxGeometry width="780" height="20" relative="1" as="geometry">
            <mxPoint y="50" as="offset" />
          </mxGeometry>
        </mxCell>
        <mxCell id="CD5EOyrNC-HjQ6tkVlGD-71" value="4" style="fillColor=none;strokeColor=none;align=left;spacing=15;fontSize=14;fontColor=#6C767D;" parent="CD5EOyrNC-HjQ6tkVlGD-63" vertex="1">
          <mxGeometry width="780" height="20" relative="1" as="geometry">
            <mxPoint y="70" as="offset" />
          </mxGeometry>
        </mxCell>
        <mxCell id="CD5EOyrNC-HjQ6tkVlGD-72" value="Example textarea" style="fillColor=none;strokeColor=none;align=left;fontSize=14;" parent="CD5EOyrNC-HjQ6tkVlGD-1" vertex="1">
          <mxGeometry width="260" height="40" relative="1" as="geometry">
            <mxPoint x="130" y="620" as="offset" />
          </mxGeometry>
        </mxCell>
        <mxCell id="CD5EOyrNC-HjQ6tkVlGD-73" value="" style="html=1;shadow=0;dashed=0;shape=mxgraph.bootstrap.rrect;rSize=5;fillColor=none;strokeColor=#999999;align=left;spacing=15;fontSize=14;fontColor=#6C767D;" parent="CD5EOyrNC-HjQ6tkVlGD-1" vertex="1">
          <mxGeometry width="800" height="90" relative="1" as="geometry">
            <mxPoint x="130" y="660" as="offset" />
          </mxGeometry>
        </mxCell>
        <mxCell id="CD5EOyrNC-HjQ6tkVlGD-74" value="Button" style="labelPosition=center;verticalLabelPosition=middle;align=center;html=1;shape=mxgraph.basic.shaded_button;dx=10;fillColor=#E6E6E6;strokeColor=none;whiteSpace=wrap;" parent="CD5EOyrNC-HjQ6tkVlGD-1" vertex="1">
          <mxGeometry x="460" y="790" width="100" height="60" as="geometry" />
        </mxCell>
      </root>
    </mxGraphModel>
  </diagram>
  <diagram id="mCGVzMDrWdsMrWZwBmI8" name="Mostrar Producto">
    <mxGraphModel dx="1434" dy="749" grid="1" gridSize="10" guides="1" tooltips="1" connect="1" arrows="1" fold="1" page="1" pageScale="1" pageWidth="827" pageHeight="1169" math="0" shadow="0">
      <root>
        <mxCell id="0" />
        <mxCell id="1" parent="0" />
        <mxCell id="_b09c1x872EprbhSuXnM-1" value="" style="strokeWidth=1;shadow=0;dashed=0;align=center;html=1;shape=mxgraph.mockup.containers.browserWindow;rSize=0;strokeColor=#666666;strokeColor2=#008cff;strokeColor3=#c4c4c4;mainText=,;recursiveResize=0;" parent="1" vertex="1">
          <mxGeometry x="50" y="30" width="1020" height="1530" as="geometry" />
        </mxCell>
        <mxCell id="_b09c1x872EprbhSuXnM-2" value="Page 1" style="strokeWidth=1;shadow=0;dashed=0;align=center;html=1;shape=mxgraph.mockup.containers.anchor;fontSize=17;fontColor=#666666;align=left;whiteSpace=wrap;" parent="_b09c1x872EprbhSuXnM-1" vertex="1">
          <mxGeometry x="60" y="12" width="110" height="26" as="geometry" />
        </mxCell>
        <mxCell id="_b09c1x872EprbhSuXnM-3" value="https://www.draw.io" style="strokeWidth=1;shadow=0;dashed=0;align=center;html=1;shape=mxgraph.mockup.containers.anchor;rSize=0;fontSize=17;fontColor=#666666;align=left;" parent="_b09c1x872EprbhSuXnM-1" vertex="1">
          <mxGeometry x="130" y="60" width="250" height="26" as="geometry" />
        </mxCell>
        <mxCell id="_b09c1x872EprbhSuXnM-4" value="" style="rounded=0;whiteSpace=wrap;html=1;fillColor=#fff2cc;strokeColor=#d6b656;" parent="_b09c1x872EprbhSuXnM-1" vertex="1">
          <mxGeometry y="110" width="1020" height="80" as="geometry" />
        </mxCell>
        <mxCell id="_b09c1x872EprbhSuXnM-5" value="" style="image;html=1;image=img/lib/atlassian/Atlassian_Logo.svg;" parent="_b09c1x872EprbhSuXnM-1" vertex="1">
          <mxGeometry x="40" y="123.5" width="50" height="53" as="geometry" />
        </mxCell>
        <mxCell id="_b09c1x872EprbhSuXnM-6" value="Home" style="text;html=1;strokeColor=none;fillColor=none;align=center;verticalAlign=middle;whiteSpace=wrap;rounded=0;fontSize=16;fontStyle=1;fontColor=#3399FF;" parent="_b09c1x872EprbhSuXnM-1" vertex="1">
          <mxGeometry x="870" y="140" width="70" height="30" as="geometry" />
        </mxCell>
        <mxCell id="_b09c1x872EprbhSuXnM-15" value="" style="shape=singleArrow;direction=west;whiteSpace=wrap;html=1;" parent="_b09c1x872EprbhSuXnM-1" vertex="1">
          <mxGeometry x="837" y="142.5" width="33" height="25" as="geometry" />
        </mxCell>
        <mxCell id="4wWyMQQ_N52SvYVw-u0N-1" value="" style="rounded=0;whiteSpace=wrap;html=1;" parent="_b09c1x872EprbhSuXnM-1" vertex="1">
          <mxGeometry y="190" width="570" height="710" as="geometry" />
        </mxCell>
        <mxCell id="4wWyMQQ_N52SvYVw-u0N-2" value="" style="image;aspect=fixed;html=1;points=[];align=center;fontSize=12;image=img/lib/azure2/general/Image.svg;" parent="_b09c1x872EprbhSuXnM-1" vertex="1">
          <mxGeometry x="55" y="230" width="460" height="316.26" as="geometry" />
        </mxCell>
        <mxCell id="4wWyMQQ_N52SvYVw-u0N-3" value="" style="shape=singleArrow;whiteSpace=wrap;html=1;fillColor=#f8cecc;strokeColor=#b85450;" parent="_b09c1x872EprbhSuXnM-1" vertex="1">
          <mxGeometry x="450" y="350" width="40" height="60" as="geometry" />
        </mxCell>
        <mxCell id="4wWyMQQ_N52SvYVw-u0N-5" value="" style="shape=singleArrow;direction=west;whiteSpace=wrap;html=1;fillColor=#f8cecc;strokeColor=#b85450;" parent="_b09c1x872EprbhSuXnM-1" vertex="1">
          <mxGeometry x="80" y="350" width="40" height="60" as="geometry" />
        </mxCell>
        <mxCell id="4wWyMQQ_N52SvYVw-u0N-6" value="&lt;h1&gt;Heading&lt;/h1&gt;&lt;p&gt;Lorem ipsum dolor sit amet, consectetur adipisicing elit, sed do eiusmod tempor incididunt ut labore et dolore magna aliqua.&lt;/p&gt;" style="text;html=1;strokeColor=none;fillColor=none;spacing=5;spacingTop=-20;whiteSpace=wrap;overflow=hidden;rounded=0;" parent="_b09c1x872EprbhSuXnM-1" vertex="1">
          <mxGeometry x="190" y="630" width="190" height="120" as="geometry" />
        </mxCell>
        <mxCell id="4wWyMQQ_N52SvYVw-u0N-7" value="" style="rounded=0;whiteSpace=wrap;html=1;" parent="_b09c1x872EprbhSuXnM-1" vertex="1">
          <mxGeometry x="570" y="190" width="450" height="710" as="geometry" />
        </mxCell>
        <mxCell id="4wWyMQQ_N52SvYVw-u0N-10" value="" style="shape=image;imageAspect=0;verticalLabelPosition=bottom;verticalAlign=top;image=data:image/png,iVBORw0KGgoAAAANSUhEUgAAAT8AAAJaCAYAAABZd0DfAAAAAXNSR0IArs4c6QAAAARnQU1BAACxjwv8YQUAAAAJcEhZcwAADsMAAA7DAcdvqGQAAGvzSURBVHhe7b0JsF3Fue/3KpVUpZJUUqmMzpxKnCq/xBVXxb7xc3i+vhBfxxebh8H2Bb8LNvhi4+sHzwwXjAw2MhLoggRIQqAJzWieZzTPIxrQCJonNM+zzt7ndPavz/6O+rTWns60zz7r/1O19l6re/W0uv/r6+69+vwzJ4QQKUTiJ4RIJRI/IUQqkfgJIVJJWeJ369Ytd/HiRXfq1Cn3xRdfyMnJyXU6hz6hU+hVOZQUPyI7efKku3LlistkMvmzQgjRuUCf0Cn0Ct0qRVHxO3v2rLtw4UL+SAghagN0C/0qRkHxQzklfEKIWgX9KmYBJoofY2ZMRyGEqGXQsUJzgInih1oydhZCiFoGHStk/SWKH6smWtwQQtQ66Bh6lkSi+LFsLIQQXYFCeibxE0J0aSR+QohUIvETQqQSiZ8QIpVI/IQQqUTiJ4RIJRI/IUQqkfgJIVKJxE8IkUokfkKIVCLxE0KkEomfECKVSPyEEKlE4ieESCUSPyFEKpH4CSFSicRPCJFKJH5CiFQi8RNCpBKJnxAilXS4+B28esr9Ym0/9z/N+FVZ7k/bxuWvFEKItqPDxe87i172bvj+xSUdwvfPxt7vlp7anr+6driRrfNCz6cQlaC20zF0uPghZghbuRAeEUQAzbWEIfsW+LiS3PeWds+HahvO37rifrCsh+v26RjXkPvXmTiXy9vJGxfyR85tv3jY/ffT/96NObg8f6Z9yTRk3ZFrZ9qkY1OW/3Pu7/y9bU/2XTnh/peZT7qPT2zJn2k/OnPb6WrUhPjFjmFzpdBB/qupv/ANuT2h8f501Vvuo0MdIyaV8m83DW0m9h0tfm0pJF1N/Dp72+lq1IzlxzAAx7XMBVZqAXaU+F3J3PCdsrMSi19HI/ErTGdvO12NmhC/ODxzhghgJZQjfoT56tx/63rumOT+m2mP+7T/08l/15T+yANL/PlPLxz0x8asYxt93CtP77pDXC7XXXfPbBrm/uNJP/Px/RdTHnV9ds/ww79CMNwZum+hD2t5+PP2CT5v1tFJ57tL/uSHR8TNeeIkbrvu35/wE/fQ6t7eojCh4DzuP5z4kO/MccfeduGQD/fvjPuRd9+Y/7zbcHav90ti96Vj7q8Wv+L+vfEP+vDcl0lHVud9m0MeLX1cWE+rz+z25SMO4iJO4jaoE+6D3Zf/YfoTvo5i8YvzQ5zEXQyG4M9tHt50j0iDtGzYWUr8rN28sGWkv1fEwT1497NZTXFAWEbLW1i3YdvhXtq9JT7i5VjzgG1HTYofFiDnK1kJjjte6KzBEebfHfege2BlL3fs+lnf0H67cZDv0MxTnbpx0X1l9r/xjdCgcT+48p/cPYv/6G7W1zVrwBzfv+IN38gRTMLO/uIT91/nhJLOVgiGoIjTazsm+k5AXsgTebOOTjqI29OfDPHiBljDd+c6vonzurOfu/9u+i/dE+sH+GOIxTns2Fgedy18yT254QNfdtybu6b5a8JObJC3v1vzjs+nhae+/supP7/jAWEkCcmik5+6/2zKI657TuCJg/L87are7n+c8YT7LC+AVicWhjr5yao3vchZnRCWax5f19/HQbh/3DLCx00aSVAu0grv0eKT23w8g/PxliN+YbuhXqgT8mtxXKy75ut9RO4Bij/5u3fZa7490a4gvDcTD6/2eVhz5jN/TN5oS5vO7/fHovXUpPgBwleJ9UcDLcfy+z/mPO3O3rycP+N84/tvc5aANXyEL2ywNEosBaxCCBsw1+CHRRjy9mczfMM+cOVk/sxtEEyEFEENBYc8kbdQ/LD8kkQpJBa7+Djs2CduXHD/fM5T3qJqKaWEIvYn/99f+uc7yhs+aCqpEyxVrG2j0LUG94Y5z/gecT//r/nPeYu5HPGL2w1pkeb//fEL/qGSBPERr7XJ8N68lXvoWPqifahZ8eMcfuVSrvgxjAobXNzwY7GLxTBswEmdArbm4kD8kjqTDU8H7JmbP9OInQ87eihiQKf/1Yb3veWFtYNF8/O1fcsWP+Ch8h9M+FufFt93XTrqzxcCi4oy/ie54dn/NusfvKX4P8/4dUGhiNMrVF5gYYu8llsnhMXyjEFICEf4GK5F/Mh3/8/nNLkXt47yD1esyTjPMUntBjjPfWbUgBjSZqkbhrCEf2PnlILix7n/PfcgIiyLIOMPr/SWrGg7JH4BSY04bvj2RMeawFIifDgMDhswnbVS8TNrpiXixzmEed7xzT4e4v9fZ/6mWbhS4gcMyUjn/8uF+49yQ7ffbfrQlzsGYWRYzTDz0NXTfjriqdwwnA5bSCji9AqVF0z8yqkT8oclXKn4ESf5xfq8b/nrzRyiwxxoUh2FJLUb4LyJH9eSDg8UHpTMTf5oRS8/BWJtMr43lIk5Qeqf+8g8J6vzom2ouvjxPfzhcwzhbYGDTzoYELYa4gcscNAQ6VQ0XpuXgbABc01Lhr3fXvSHsoZ4YUcBjjkfEoeLj+PykX7IhMOrfF6T6o1ruDb0S6qvkNifMlZz2FvoHoWUKhPpkw/yY5AWadqwN6ltxfUX3hvmBcP8YvUxHxvfX9FyOlz8EDCe6IgYE/QIGE9De+VteE7U8DOHv4UxEeQ84aolftYxsYroWKFghA2Y861Z8Agn9x9e3cefCzt6KGLAwgZ5/eTcPn9Mmn/x8T/eIX50otM3L/nOGpZvz+Xj7mvznvHDPtLFYUkxD2jD+hCbAnh287Cm8L1yQ7n/fMqjBYWC9BBTRNWGgy1d8MByYtXU6qQlCx52j7Cslp3a4fND3KRvlmZSGwghffLGPSq04MEDE8vvvVyctuDxD7m6ZT7Z2mR4T1/aOtpbsrvy0w4sXvHA5cEp2oYOFz8TLXPhogXiFvqZQ/ggFENz5UIDja81Zw2OH5eyWsrKnFGo4WORsMJnc39GLEpJP3WJfwIRg1/4U5ekn3UkiZ+JRvgzD8KE4Zac3ObjJQxCEpaPdCcfWeOFvdDPMWL4WQv5I5+UkfSZQyskFIgNYYibdPbnrd+kn7qYH8R1gpDwAAktP0j6qUux/AMiyf0kTivHI2ve9Q8IKEf8uDfkz+oivs98cmxp4M/PkJgDTBI/0iYP1m74pLzkVbQNHS5+gIhh9SFqZsnh+I4FiJ85BBEHZikioOafFj6//IW3aqYeXZs/IzoLJn5Jc4qi81IV8TMQPBvKImqhFWjE1h7i2NWZcmStn3C3OUGGUgyBwlVl0XmQ+NUmVRU/o5QVhwBi7fGZBhi+Prr29pCHHzP/cHnPZsNA0XmQ+NUmnUL8hBCio5H4CSFSicRPCJFKJH5CiFQi8RNCpBKJnxAilUj8hBCpROInhEglEj8hRCqR+HVSTpw44ZYvX+5u3ryZPyOEaEtSJX4NDQ1u7969bvjw4a5bt27ulVdecePHj3fHjx/Ph+gcHDt2zK1cudLV1SXv4HHt2jU3evRod/r06fyZtuHs2bNuyZIlLpPJ+ONNmza5hQsXuvr6en/claGsCxbc3h2mLbh165abOXOmb2tr1qzJn609qBtcVyM14kcHXrp0qRsxYoQXO4SQc59//rnr37+/O3ToUD5kdSFP169f9/krRHuJH/HNmjWroOh2ZdpD/GhT06ZN8/VZ7H52diR+OWpZ/Pbv3+8tvsuXm28pD6HYICzz5s1zPXr08I7vnDO/UaNGeats4MCB7rnnnnMfffRRszgvXLjgJk6c6K3KXr163WHBEXby5MlN/lgECB7p01k+/PBDHy95LVTfsfhx/ZYtW1zfvn29lUEew2v5TnzES74PHjx4R2fkHP64Pn36+LhjQSDvWDLkvXfv3j5N0gbCUq65c+d6f9LhIbN69Wpfj++++647cuSID0vc5GfFihU+HsJzndUzFLsPVl67lnTj+4r1On36dLdnz578mUbWr1/vli1bdkf5w7LixwjB7vGAAQP8MefLSRuIL67PYmXik3tK/kiP+xHXE9eQNn6EIX1rP8B95t7TBuL7Q7tklIMf7WTbtm131AGE5SM90l63bl2T+HFNue20s1Mo311O/BYvXlxy6IFI8aTmhvMdx3d7etNAhwwZ4i3IGzdu+A5Gh2FuDq5cueLGjBnjtm7d6hsRojpnzhwf3o7Hjh3b5M+wiIZ16dIlLwxYpQw9aWBnzpxx48aN858x1lFM/GishL148aK/9sCBA27o0KH+WvI5YcIEf+/wI61PPvmkaWgbQnyh5RcKguV9165dPh7i/fjjj33aQNhBgwa5kydP+rKtWrXKd1DKxfHGjRt9eK4lHaxtriEt6gE/hJV8ca7YfTh69KibMmVK00Pr8OHDd4gccA4BtLISnnpiPjUmLOvVq1d9/qkrix9R4bjctAGRsjhLlcnaFuGpD7B6svZCXSKkCCRl4uFCvmh3HPOgDdvPyJEjfVmz2aybPXu2H+Xgx73jflCGGMqCsFk8TMFwbOJXSTvt7KRC/GhcPKHtBhaCxoTVRuMw+M45/GLRASxKa+A0LhoZDdVAkLAO6ThJ/sDx/PnzvX8IxyasIWE+WBCZNGmSb6QGjRKLC7E38aMjxunGFBM/OgXWWRgHZZo6dapPIwwLYccHjrkHxE065J9yGMRFZ6UTlboPCBDfTewLEYsdeQjFMCTOP+XkehxiRL2Q73LThrAOWtK24nrikzoMj8NryI/lmfyTNnkw8du+fbv/Xgiu4WEdt0PqBod/Je20syPLLyDsoIYJJ35JDTRs4HEHgvCaJH+wNGyYFLqk8GGcSXmCMC06FyLQvXt3P/QxKzCGOAqJH9+T8jd48GCfh7hsYb1AWLekQ565zuC8CUyp+0AnZNiGZcnUAfcW6ycJG+Zax+W6JML8M4zFourXr5+3ZhnaIczkrZK0wzooVaak+xjXE5+ED4/tGgQaYX/77bd9nocNG+atf+IGhr340wYojw3jQ8L8hFA3OPNPagfhva4VUiN+5cz5IRIM7Tg2+M65Qk/nsIHzBGQYE1oW586daxoy4V/I8kt64hYizAeWH5Ydwy+DstDhY7EnHeZrqIfz58/nz96G+AqJH3kjj3HejdaKH/XDOfJV6j6E2NQBQ+Ykqwarj/KSPlMSpJNEmH+G8uF9wkJjqBvedyiVdlgHLWlbcT3xWUj8uK/EZZYleacM5CGEtkF46gQrNqRQOzTxK+Rfq6RG/LhxzL3xRGTegkbAOW6krfYiWnT+eF6Gc/glNdCwgVtjjuf8iIP0Yn/rPHRI8kTemDMjLI148+bNiWId52PHjh13zPkRF8KLVbJo0SL/HT/EBeuvkPjZfBb5CwUhzjuOoTD1BpWKX7E5v1L3gfJRb9QRZeIe0tGTBIjwPJBIL2mhwwjzT7l4oFB3hD916lRTfVeSdlgHpcqU1Lb4zrlQ7AqJHyJv0wbki7bAfSYPpMVPmBBZ/LiX3OdY/CCe8yM+LEjqByppp52d1IgfcLNK/c6PBlVqRS5soHEnb6vVXlbkwtW6kDgfhCFs0mqvldlWLgnD3A/nY2jIljc6dSxo5N1We+O6qVT8yCN5tlXLSlZ7iYN6pf6svMUm3OnQxJHU2Y0w/9Qn98XSZrjMPSXflaQd10GxMvHZGvHjfnJfbRWa+0SeyQPQHsgreQ7bXYy1pXA1G6PBxK+SdtrZSZX4ic5B3KnbG6YEEAIsTCEMiZ/ocDpK/LBSGFIy9VBooUOkF4mf6HA6SvwY5trwUlafiJH4CSFSicRPCJFKJH5CiFQi8RNCpBKJnxAilUj82gh+6Mp7nh312zUhROuQ+LUBCB+/+tfPKYSoHSR+rYQf0tp7nkKI2iE14he/k8j7vWF5eHeR9xjDdy95iZ93OYvtCMzGl/Z+JTDsLfT+phCi85Aa8Su1Ay3ixz5otuMLmx2wewW7nyB8hXYERthM/BDKYrv1CiE6D6kQP3acKLUDbbwrCWLFzhiIWih2wE4ZJoah+CGYvEDPMNjgO+fCnWOEENUnFeKHkDGkZbgbOxO8JPFjrzUbzsY7AtswOBS/cNsmw9K2rYWEEJ2D1Fh+pXagLSV+bAbKTsCIWLgjcGz5seEnlqJhm4DK8hOic5EK8YNSO9CWEj+z+OIdgUPxK7VbL2nFCy1CiOqQGvGLV3vjHWhLiR8w1GWHW5v7g1D87LjQaq/ET4jOQ2rETwghQiR+QohUIvETQqQSiZ8QIpVI/IQQqUTiJ4RIJRI/IUQqkfgJIVKJxE8IkUpSK37HLzS4Qcuz7tejMt69OjPrzwkh0kEqxW/W1nr39dfqvOAhgBzz/Yf9M/5YCNH1SZ34Yd0hfJ8cutPK4xwCmOQnhOhapE78zNorhA2FRcvh0UE99v44626qKkUnJXXih2UXzu0hhjjDrL9yyNY7N259vbu3b8b9RY86737yQcYt/axxp5hSPDU24wWitbRVPG0BNTtgSdYNXJb131vK2v0N7pcjMu7S7a0RyyasDz45FiImdeLHkDcUP45xhg2LS3Er15+en5hxP+yXcUt213sh5NyoNfXur96qczO3lhbArih+1245d/ZK/qAVSPxEe5NKyy+c00PsQjG0xZBSTNpY736QE769p+60b77IxYcYwqJd9T5NrMK7etW5dxdmvUhC2EmJZfqWevfdPo1izCd5gbgDIwgIAwIBYTzHzje4J0dn3Dd7NlqiDOE5B4S/L5eX7jlLl/jt+pDTlxvcbz9qvB7H93NXG6+9/72MO5qPC0jT0r10w7luU7PuW2/ctoB3ftEYlmtIF38r349yce07fTsu6on6tGtHr61vJn7E9dCgRn/SIC7STKKQ+JEadfr9dxvzQHqka3BfuD/cJ6u7308ur4yi9kid+NnPWgoRD4ML8bvxxeOBKzed+0Ous2zKiS1dZOPB3JA61+FW7GnscGEnnbe93v1Nbvi8cm9jWK55fU7W3cjpcNiBoZj4DVlR761POvL5a43l7TG70Y/w3/6nOh8vFloM5x4fnnEvTWkUFo77Lsr6/JYSvznb6t07C25fh8D+ZkzG3cp5c8333qnLWcpZL674k2eEBfbkHiAI0tCVjRb0wbMN7u9z5Xt4cKP4HcodI5bkhXLxsHpiZMZb3sQfE9ZHWHfUMfVv92ND7n78+P2M23CgsUwfrWsURvPnXvz123VllVHUHqkTv1JzelgEpVZ76ZB0TOsUxaAz01mxBum4dMRpm5uLH52Hzjx81W0rJCTswFBM/ABLDcEhHGnZtUkCFsJc5d8OzLhTl+70LyV+QHr4m6VolhvnuNbyC1jOli+sPMofikh4Pf6IoVnMsOt4oyDuOXlnXsP6sLojboSKuEI4RoTtHsT+5ZZR1B6pEz8oZP1VstJbjuVHB3n0w4y3trAgsOywLGLxo/MgpnY+xjqwQfgk8eOIYRvDMoaXOIZmdi3hi4kf6Zu1FZN0bSgMiBnDxf83ny7C9PNc2U0sYvELRTkuH4TCkuSfFKdh9QF2rdUxD7fYhf7xPeB6i6tYGUXtkUrxwxJLmvujI5Sy+oxy5vyYX3pgwG1LCssFCyYWv7ay/EiXubWFO2/HQ5x2bZKAhbTU8mN4/6+HNM8/eShX/Mqx/HiIMNQ0thxpLGslll+SZWeUsvxKlVHUHqkUP8DKC4e/peYCYxAy5pyw5JhLSlrtZa6MOSbm+uiiu080eEssFj8oNudHh0SUEGjSYF7v7lwasfhhabIoMDhXNvLD8aszbgtnKfFDXArN+SEylGVxfmWb+TLKTroIB0NK5sC4BvfB0qx7ZGh54hfP+dmii1mhlJuHSDznRz6TShLWK5+WTlzHpNMn528LL/Gc34KcuJVbRlF7pFb86EAmeHyWO9wNoaMW+50fHYjfu9nq4WM5YUHEksSPsIVWexGxx4bdXjF+eVrWW0Kx+AGihEVKHHTcZyeUP+yFQqu9XIH42CoyZWEBw9JlUcJWYxFm0iVMOeIHttprZWeRJpxPa4/V3r98s/nqO5+22ks5Edc/zyqvjKL2SK34AQKI9UdH4LsQIbSIp3PCiSCKrkeqxQ8QvXLn+UTXhh+rY+VhUWLVm5UYWqyi65B68RPCQPQY6trQnukMBFDS1zWR+AkhUonETwiRSiR+QohUIvETQqQSiZ8QIpVI/IQQqUTiJ4RIJRI/IUQqkfgJIVKJxE8IkUokfkKIVCLxE0KkEomfECKVSPyEEKlE4ieESCUSPyFEKpH4CSFSicRPCJFKJH5CiFQi8RNCpBKJnxAilUj8hBCpROInhEglEj8hRCqR+AkhUonETwiRSiR+QohUIvETQqQSiZ8QIpVI/IQQqaTDxe/hhx92hw8fzh/d5uLFi+6JJ55wy5Yty59pO6ZMmeIdTJ482b3zzjsum83645h9+/a51157zd24cSN/pnNwK5fd34zJuBcmZV1D/lzIgCVZ9+D7GXf6coPr/XHWff21ujsc54HPp8Zm/Pdpm+vdX75Z51bvbR7rpeu5ezU44/2Pnm9wf/32nfHhOI8/4ZL8w3TC89/sWed+OjDjFu+uv6M8l3JV32te1t3duzHst96oc48Ny7idX9xZ8oNnG9wz4zM+DGEpy59mZH0cUE5dhOf/oked+8kHzdPK1js3bn29u7dvxvtbmKWf5TxEzdLh4vfyyy+7sWPH5o9us2HDBi9+iGBbE4pfKTqr+MHsT+vd99+tc3tOJQsVAgihuCURix+d/l8PybhzV/0pTyh+IWv3N7j738t4wQshHOG5LonY/1Yu+Qkb6t09OYF7d+FtQScP5OXx4Rm3+0SDP4+QvTU/68OGIr1mX4M/h9gh+kDdcO2jH2bclZuV1QVcu+Vcj9lZL27khXw+PzHjftgv45bkhBoh5NyoNfXur96qczO3SgBrlQ4Xv5UrV94hclhhb775ZpMonjp1ynXv3t195StfcXfffbebPn26y2QaGyji9Nhjj7khQ4a4e++91335y192r776qrt27Zr3Jxzhue4b3/iGDzdmzJgm8ePz7bff9t9hx44d7vHHH/fxPPPMM2758uXNxI8yP//88z4vd911lxs6dGhBYSReHPEQ3/333+/L29DQ2DEtb5bvX/3qVz59g7xRlt69e7uXXnrpjnTojHRKEzljxZ5694Nc5zRRrFT8iPPJ0Rn30pTbItTe4mesyonZ3+Qsqq1HGuNDeGIhNgYuuy1Klj9EsXlOGgXMxLBS8QPKyENm8+EGN2ljY93ujR448MWFBi+GojbpcPFD9J588km3efPm/Bnnh8EIGp/4P/XUU27hwoWuvr7eXb582fXp08eLBiB+9913nx++Ig5Xrlxxzz33nPv444+9P2Lz6KOPukOHDnnR2bZtmz9OEr+TJ096P0vr7NmzrkePHu7FF1/0cXP8m9/8xs2YMcMLF3nr2bOnGzBgQOKwmXgJT9rEt2XLFvfggw+6rVu3en/K8PTTT7vjx497/3Xr1rm/+7u/cwcOHPD+5I2yEd4EMwbhw6qhgwOhGAqHw2E6dDiUM8d58w/FDxH5LGdlPTAg4ybmOju0RPyS0ozTicWP4fwTIzPe+rM0R69NVpRDuSEuQ0+GmxsPNnhrbM/J5HoyKqkLiC2/3+WG1K/OvPNei9qnw8UPsPCw9ExA6PR2jHi98cYbzcQFkfrDH/7gLl265MUP8Tx//nze17mJEyf6OLjm9ddf99ZbCH44+27iRzjCh2mFw16zAs3qBITrt7/9rc9TDPFaOsaoUaNcv379vEj/4z/+o9u+fXveJydcOYEbMWKEDwNh3gqBdYclgrUHh881uPv63z6GuEPHJIkfwsOQ8sfvN1o5LRG/JHEzivmTF/JEnMwhxmkaYZ5wNt9YjHLqIhRF5vMeGtQ452fpEUZ0PaoifqGlx3CVYaVZggjAl770pTscCyUIXpL4cQ0OwXrhhRf8/GGI+dt3E5jwuxGKX5I/6ZI+4WKSxI+8cL7QdaXyE0NXDy29j9bVu58HliCU0+GTxA8YWj4ytFHcTGhC2lr8OsLyK7cukpDl13WpivhhaWHp0dkRPcTP5uySrLGQYuLXHpYfCzS3bt1WFgT717/+dUWW36BBg7zlx1xgONzH8hs4cGBFlh9g5WHtsSCA8CGAIa0RPybzn5uQcd1zHR4LqL3Fjzk/5te2dKI5vxDN+XVdqiJ+gAg8++yzfmFjzpw5+bONc4LM+dk8G46h8KZNm7x/MfGDeM6P+bRHHnmkyT8UmHjOj/lFFhuwHhG/OC8258ciStKcHPEWm/ObP3/+HXN+P//5z92RI0e8f7niR+dG9H4/pVEM6IQhrRE/OJ6L71/lxJUhYHuJH2Xg5yNtsdr74uS2W+2NsdVeBHredq32diWqJn5Yer/73e/cT3/60zusqHC1lxXbXr16uQsXLni/UuKHSNlqL9ezePH+++8nih/Yai9Da/LCfGRrVnux8pizJHxLVnvLET/A2kOcsJRi6NDhPJY5zpt/MfEDRIbfzFUifklphumE5zvT7/yKiR/od35dk6qJX1cE4TKRFUJ0biR+bYjET4jaQeLXhkj8hKgdJH5CiFQi8RNCpBKJnxAilUj8hBCpROInhEglEj8hRCqR+AkhUonErwPh/eRhw4a5q1cT3tpvJ44dO+bfWRZCNKfDxY8tnniPNtzMwGDHFN57Lff91vYm3OGlFMW2ugKEb/z48f793hiuZTOF8H3ltoJ3h0+fPp0/qhzyxHZi4fZiONv8oRLYPYe/n8JGtFDJu8xtxc2bN917773nN58Q6aYq4scGAeE2VgabCnz3u9/tcuJHp2cj1qSdYKCziB/ps+V/SLFytZZqiB/3knvaHuURtUVVxI997WiA4d52bBfF3nn9+/dv1iFK/T0P9tYbPXq035GFY7aKwqoMd06xbeLZGYYdYtgphvjYfcV2iwHb4aUlf8+jmEhwLtyJhnjs73yQ3ooVK5qJH3v/sVU++bS/QxKnw4OCXWPijVtj2lv88OceUBfkh7phj8Jdu3Y11SV7N1r+ubf2CmAh8eP+hTt9w2effea3A6OdlKofyw9tAiuVnbepA/xCK5b0eSCx846FjXfisTaBH2E2btxY8CEmaouqiB8dffXq1b7hWwOnwbEdFEMi6xC2n16xv+fx/e9/3w8nbcPRcM88Gil76c2bN89fv2DBAv+nMRFPrE7Ez/5oUry3X6V/z6OYSITiR7oIH+mSZ44pN3sO4s+5P//5z03+pI0gffDBB03p/OxnP/N1FFvOSbSF+IXiZg+UvXv3NvmTHxOgo0eP+j0MLX+27b+F53wp8eNeUNdMgwD3EUG1OimnftjGjPZCGNKgjoHwoeV37tw5Pw9LmqTD9IRtVou1zp6TO3fu9H6cmzRpko9T1D5VE78zZ854S48GTmNiR2We7mGHQBAr+XseSX8nI4bFBsLTCciLpVXOrs58D+fswr/nQZzliB8WEXkkrwbnzfKjDvge+vP9j3/8oxeWYukkUUr8KBvpmTUUOuqH+qLcPBTq6up8+Xn4INZJ5Y7FxeI3C7Uc8QvFDhAoHmi0lZbUz9q1a5vSifMH9jDDIdjmb+KHtRfed9E1qJr40Qhp3AxxaNAIDyIYdgi+J3XKQn/Po5gw0KHotAxXGb7gsMDCtOKOSDx0BPKa5B+mVyztMJ9h+Q3Oc878k8p8zz33lEwnidZafklcv37d/8U88hrnJxYXjisVPwiHuTwE33rrLf9gakn9cI2lE+ePusGS/cEPfuAeeughP8TlT6uaPw8r8vG1r33NtxezAkXtU1Xx40nOE5v5HfvTk2GHSLLGQmigJiqABVDI8qMTMZwJ/RYvXlw0LeI38cO/2N/zKCZKYT5LWX5J/iHF0kmiLcQvrn/EjzwyRIzz01biRz3TNrA4+UQAoSX1U0z8mMbg2Cw7rL3f//73d9Qv/p988okXRyxMUftUVfzoVAgfVhgCAmGHQLAq/Xseheb86CwsViCyzOkxvOEPB1lapN+av+dRTJTCfJJuOOdH3AgO81T4c445LZtDIy+UYcmSJSXTSaK14kc90uFtrpT8kXfyQB3E+YnFheOWiB9wr1n9Z/6PtKAl9ROLH2LKQ5BhPGlwP5jTJS7mJu16pmb69u3r/8YKcSN6hJX4dQ2qKn7Aii+T6TQuiDtEpX/PgwZcaLWXT1u5Q+hYrAjTQijClT06uVl+QPmLrfYm/R6O8sT5JB46Efkjn6xWE6/5I9S2mkla+FndJ3XuYlQifoXA2iK/5AX3yiuvFMwP9dFW4scDye5DSKX1E4of7YwFMq7jwYsVy0PQVo45x5Ce6wmLOJIH7iX3igeptVVR21ibiWk38RMdC9YaDwQhRHMkfkKIVCLxE0KkEomfECKVSPyEEKlE4ieESCUSPyFEKpH4CSFSicRPCJFKJH5CiFQi8RNCpJIOFz82JbCNCQxeMJ81a1ar30EtBZuZ8t5m6OK8lAN/B4J3kvlsT/bs2eP3tbNNPYUQbUfqxO/gwYP5o5bDzizsOM1ne8E7uexAw8YE7Kiil+mFaFs6nfjRydluiO2k2D0EAWAbI0Bs5s6d68+zq4f9Ba74PNsSJYlFIfHjxf81a9b4betxfLfNACjz8OHDXbdu3dzEiRP9riEIH1YjW+qT5zhe9v7jPOWaOXOm92fnFnZFLlS2mBMnTvjriIN9B9lnTgjRdlRF/OKhZygkCNm2bdt8p8chAPv37/eWEFtVbdmyxQsT++2x1RLnCcMQEcFji6LZs2cnWpGEi9MlP2yTTlzEy/Xs+MxWWpxnOyWEiLjZ1406iC0/4i0kfoRbv369z2ehsiWxbt06Xyb4/PPP/XVCiLajKuJXyvJjLzU2p+RvJ2CFER7LhzDxPBvn2YCTTUi5Bjd16lQvkjGxSBkIE8NLruUTkSUcokP6MZWIXzicL1S2GAR42rRpTdYen1i2haxEIUTldDrxY5fccePGeeHBIWylxA8h4m8+ICzmbGPQkELih+CxQzOWFt/5S1/tIX6FyhZDPhhmhxYqG7pq4UOItqPTiR+igJhgjTEMXbVqlQ/PMWGwmMJhL9YQVhFbmXOeuIgjyUoqJH4InP09Vq5nno5wDHtHjBjRtCW+DXuxzNiFmB2FOW/Xkz5bnzNUThK/QmULwY/0Y6FDENmin+uEEK2n04kfosVCgC1esOW4hcfSKrXgwWIC82OIUkwh8UPEWMzA2mJxg7/jauEoc7jgQVgEiBVYrDHm7Mg3P0khfSxCxCtJ/IqVzWB+EevQtsc3WCyZMGFC09+yEEK0jg4XPyGE6AxI/IQQqUTiJ4RIJRI/IUQqkfgJIVKJxE8IkUokfkKIVCLxE0KkEomfECKVSPyEEKlE4ieESCUSPyFEKpH4CSFSicRPCJFKJH5CiFQi8RNCpBKJnxAilUj8hBCpROInhEglEj8hRCqR+AkhUonETwiRSiR+QohUIvETQqQSiZ8QIpVI/IQQqUTiJ4RIJRI/IUQqkfgJIVKJxE8IkUokfkKIVCLxE0KkkqqI35EjR9yf/vQn941vfMN96Utfcj/96U/d7Nmz3a1bt/IhnLt69aq7ePGiq6+vz59pPTdu3HAvvPCCd3xvKefPn3cPP/ywe/vtt/3x0aNHfRmGDRvmGhoa/LnOQpy3DRs2+DrnsxBtVU9CdGY6XPz27Nnj7r33Xt8BY/fiiy+6y5cv+3AICwKD0LQVEj+JnxBGh4vfoEGDfOcbP368y2Qy3rI7dOiQtwTfe+89fw5qSfxqCYmfEI10uPghGN/61rfc1q1b82cawSpBCE1YzBrETZkyxYehI44cObLJcsSimTNnTpNgAt85hx9hGFojrOQ9qVOvWbPGh/n973/vrly54s/F7Nixwz3++OM+Pj5XrFjRTPxiMSQP06dPb8rnXXfd5V599dWm+qM8d999txszZkxTPu+//363cuXKZpYj4W164Ctf+Yp75pln3K5du/K+t9Pt3r27GzJkiE/ny1/+snv++efd2bNnm4WxvJn4zZw5019HvOSF/Fo9JtUTUxLjxo1rKtOjjz7qNm3a1OksXSHKpcPFb/78+b6D0um6devmli1b5uf2YuisdFo6L9D5evbs6X784x+73bt3u2w264XrO9/5TtOQDsd3xBWBQkxPnjzpPvjgAy8Gcae2IfhTTz3VJBYxiM23v/1t17t3b3ft2jV/HWmQ/0Lih4ghWOSBPFE+hI65TkD8EBDiZJhPnH379vXXUCZguPrggw96geJ6wmA1I3CffvqpD2PpPvTQQ27btm2+vDt37nT33HOPe+edd3zahcQPgaRuELyJEye6r371q14AIa4nwmCVP/LII95KJx3KRjqWXyFqjQ4XPzrStGnTfCemE5rDotq7d28+1J3it3nzZve1r33NW3UGnXvgwIFewA4fPuwd3zmHX0zYqbdv3+7uu+8+94tf/MKdPn06H6I5xIGIWPxGLCjx8YwZMxKtWwPxQzj27duXP+O8wFEHL730ks9nWC7Dwrz88sv+YRCnC9evX3fPPfdck3AVEr9w2EtcxPnEE0+4S5cu3SF+SXXPw+fNN990v/vd7/xDQYhao8PFz6irq/MWzODBg5uGfoiRWUex+NlQMRRIWLt2bVNnto7NuSSsU2M9PvDAA+6b3/xmkxWVhIVHTBAVo5T4Xbhwwf3hD3/w1tRjjz3mRo0a5U6cOOH9IEn8bt686YWPeI4fP56YLmKMtWj1EqcLsXDFYZLED7AqLU9xHOSXupo0aZJbvXp1kyMv3/ve99zBgwfzsQhRO3S4+DGvFs+tMYxiKBl2yvYUP8KYCxdZYix8peJncD1WE0KIJbhkyRJ/vhbFD8vvtdde8/UVOh5ep06dysciRO3QoeKHyDCM/P73v+/n+rD+gLkn5qCYC2QSHWLxa8thL2GYy6PzkqbNdcW0dNgbg9gzr8jiBWVOEr9z5865n/3sZz4Mw9CWDntbIn7lDnsXL16cv0KI2qfDxW/s2LFecELry9yzzz7b9Du/fv36+RVQ0kQw6KDxggeT7lhULV3wIK2nn37aiwyLH0kkLXiweEEZCokfQ8JevXr5oS552r9/vy8LeQPEj/JWuuBBmKQFj5aIXyULHlb31NOWLVt8mcg3w+BQwIWoJTpU/ICOw4okQkdnpyN+97vf9T/VCCfO6VTMBSIy77//vhcyOmJb/9TFVnwLLXyQX6xRftpBfIQdPXq0j7+Q+JF3ftpiizp8Dh06tClNs/w+/vhjL76UsSU/dUGUyFso3HEZC4kf85C/+tWvfNrl/NSFz7DuKRNl5EEkRC3S4eInkuf8hBAdi8SvCkj8hKg+Er8qIPETovpI/IQQqUTiJ4RIJRI/IUQqkfgJIVKJxE8IkUokfkKIVCLxE0KkEomfECKVSPyEEKlE4ieESCUSPyFEKpH4CSFSicRPCJFKJH5CiFQi8RNCpBKJnxAilUj8hBCpROInhEglEj8hRCqR+AkhUonETwiRSiR+QohUIvETQqQSiZ8QIpVI/IQQqUTiJ4RIJRI/IUQqkfgJIVJJ1cXv2rVrbsSIEe6BBx5wX/rSl9xXvvIV98wzz7idO3e6hoaGfKjWU19f7y5duuQymUz+jHMTJkxwf/7zn92tW7fyZ+5kw4YN7oUXXnA3btzIn2kZb7/9tpsyZUr+qDTk87333vN1Usl1LeHo0aPupz/9qRs2bFjBOj9//rx7+OGHfTlaQ1vFI0Rrqar4HThwwP3sZz9zPXr0cCdOnPAdD5GZM2eO+853vuOmTp3aZgJIp3vyySfdvn378mc6r/ghfAMGDHBf/vKXJX4thIfd8ePH/adoe+gzZ86cyR/VJlUTv8uXL7unn37aWzehNWYgjGfPns0ftZ4k8SuHjhY/6gIR+upXv+p+8IMfdIj4lUOtid+RI0fc3LlzfX2eO3fOTZw40b3yyiuuW7dubsiQIW7v3r1NQn/z5k1fxwsWLPDH5bBp0ybv7PvChQurKrSnT592Y8aMcVeuXPGjqdGjR/tzSZTyL4fr16974+TixYv5M7VH1cRv5cqV7sEHH/RP51LwlJk2bZq79957vRjwOX369CbRNGFbvny5b+AMnb/xjW+4UaNG+TAIGNeZs45Hgw87IQ0Hi4trcXSSFStWNBM/BLlXr17eH8vsV7/6lduxY4f3MxBuhB3/+++/35e1T58+TSJGPWJp0WFiTp486R599FH/UMAyLSZ+Vi4+DcT9nnvuabrGxKZ79+6+PHfddZfP1/PPP9/0cEkSJMr0+OOP+/j5pB7CMHT0VatW+fJT34SjTJQ1tB5LxZPED/tn3CeHki1QzuN/4lL+RALkbf78+W7Pnj2+o9NJqRfOk7dDhw75usByQfjw5763VPw6Gx0hfrB+/XrvapWqid+gQYPcn/70J1dXV5c/UxgaGWKAtUjj3bVrl7eK6GhA52X4/NRTT/mGTSMnDPOIn376aVOY2PILxQ+BRSAQBQSIOLZu3eo7rIkf54YPH+5FC1HFYVE89NBD/hrA4iBdnsJcg6Nz3X333c0EieE28SeBCJMfwreV+JHHbdu2+TIwn0qYd955x9dnLH7U3be//W3Xu3dv31EoA9YoImdhuI40li1b5uuBcITnus8++8yHKSeeJAYtzyYKIMdff63OvTozmz+TDOUZP368u3r1qj+mzIaJH/7UM+1j8+bNvo0VEj+u37Jliy8HUzQI+Lp165rEL7z2woULPm4szL59+/o6J03Kz8OYNovQ4k84whuWDtfhT/iwz5EGzqxY8sODFhAyBI10cHynXLTXOC3zN/Ejf7SJpHyFZSfNyZMn+34IGC6TJk3yD5BapGriR+Mv1gFKwbVhB//1r3/thzIGooq4hmGKiR8dFgE4fPiwPzbWrl1bdNgbxzt27Fj38ssvN5tHpHHReCwv5UL4thK/sK4Zsjz33HNN5QrDkFdEEes6rIukeGIQu29961s+7dbEA7EAlit8sH//fjdjxgyXzd4OS4cfPHiwL/fMmTP9cUgx8cOC/PDDD72lTLmOHTvmj2PxI73Zs2e7zz//3Iejbjdu3Ojrm/SwNpcuXerP88DAakKE8AdEZty4cX4oyfUI29ChQ5vm1kiDh6rlg3zZQzYWvzAtBIx8WFr4h+KHdY6I8TAgXh4OCCzHzAdzP7kOP+4l6QLnyG+tzv3VhOVnw1GGkHQchsCvv/56sw6eNJ9HBysWBj/rhAgIHcMaosH5UPxokITD8sTSxPJBeC1e4qPhxIR5KRfCt4f4URbKlCR+5hfXRVI8dBrqAKvy1VdfdUuWLGlKu5J4CmECyGe5wgfFhAwhwMpBHMMHVKFrCM8CHIIWQvhC4rd9+/Zmwgux4AAWE+KB2PAdAUJYDcRm9erVbs2aNf6YNCxNoF/Q1og7yfKL02IaBTEL/W2EEU8/kSb3l/CkYYIcQt/FEjx48GD+TG1RNfErd86PRtSvXz8/HCV9bhzmPB0u7OCtFT8svFLixxPuF7/4hX/a8rMZGgQ3/7777vPx0jiw8NIgflgAWHXcFzoIHQk/5hNJuy3EDyoVPigkZAadFqFBdIxC1xTq4IQ3IQqvZbjIfDRTKAw5bWElSZCA64i7kH8YN5+WJnANeeOT64qJHySlxXeziGNHWog/Q3eMD+a6Fy9e7EUXJH4tpNzVXutEYQcHOk/YwVsrfuUMe7mWOIjLiOOthWGv1amVKwxDXssZrpZKu9x4ymHW1spWUUPBADpwSCXiV4nlF0L5ERcEMLa2jNAas+9hXREHI4tClh9xlit+hSw/szjLXXhkrpNpA4wSiV8rQOAK/c6PBQJb0X3zzTf9k9RMbxrtE0880ayDlyN+v/zlL/2QBKuNePCzTsiNTVrwwMI0keD8I4880pQvHEO9H//4x01pJy140EBYHQ7zUmzBwyB8MfFjsv5rX/uan98h/9RPz549m12TJDbkqZD4QdJCBeXBqrMwPCwIw+S8ldPCWNrlxNMeIFS0Ie4hP3MhTe4Pxzjm1uj8ZsFAIfGDeM6PEQBzcbH4IQa0B4SEcFi81IUJTqk5P4aZ8ZwfC0SUASoRv0rn/CxdoH+QDm2KPCB4xEOeqFuG9ogf51gcOXXqlL+u1qiq+AE3InzDA5F49tlnm73hwVDijTfeaPoJC+b3iy++2NTJuGl//OMfmz3JgQ5mYbhZNAji4A0S4sQv7IR0BjoqaRAOMeQpZyIBNBT76QZWDXE+9thjzYSXoQ4/AaGTI+I0rHCOknpEbBYtWuSPC0H4YuJHB2JFMPzZDSvLoeVHA6Yh2yQ1UJZi4ke9cw0/ubFy0ln4KUsYhqkL5mEJw/3j5zzhqnY58bQHdGqsHLtn4e/8cHy31UyDfBYSPxNM2oateCIsXAPhtdxb7gmrprRTrDauN8EptAILlk6x1V5LE4izkPgVW1m2vJj4cZ9stZfh7sCBA5uG6wg68VAWy5MtcMT1XGtUXfyEaGt4KPDQwuLqLMSC0xVgLpBhOSJZi0j8RJcES5chKNZUZ6CriR8jCn51UcvlkfiJLgnWH/O7DNs6A11N/FiwtN8z1ioSPyFEKpH4CSFSicRPCJFKJH5CiFQi8RNCpBKJnxAilUj8hBCpROInhEglEj8hRCqR+AkhUonETwiRSiR+QohUIvETQqQSiZ8QIpVI/IQQqUTiJ4RIJRI/IUQqkfgJIVKJxE8IkUokfkKIVCLxE0KkEomfECKVSPyEEKlE4ieESCUSPyFEKpH4CSFSicRPCJFKJH5CiFQi8RNCpBKJnxAilUj8hBCpROInhEglEj8hRCqR+AkhUonETwiRSiR+QohUIvETQqSSqorfqDX17pGhGfcvXq9zX39NTk5O7k6HPqAT6EVbUhXxO3q+wRcmqaBycnJyhRy6gX60BVURPwmfnJxcSx360RZ0uPhhuiYVSE5OTq5c1xZD4A4XP1l9cnJyrXVtYf11uPhpcUNOTq61Dh1pLR0ufkkFkZOTk6vUtRaJn5ycXE261iLxk5OTq0nXWiR+cnJyNelai8RPTk6uJl1rkfjJycnVpGstEj85ObmadK1F4icnJ1eTrrVI/OTk5GrStRaJn5ycXE261iLxk5OTq0nXWiR+XcS9uzDr9p9ucNn8Zhe3ss7tOt7g/s1YbSRhbsOBBleXq5chK7SzUFdwrUXiV+Pu2/9U5+Zuq28SvZjLN5x7Y2428dq0OYlf13KtReJX427w8np3K+NcQ4Nzu080uJenNQpdr3lZv+Mt57EI/6avLECJX9dyrUXiV8MOqw9hgw0HG/xx6P/YsIwbvbbef9o5js9eaRTL+py1+MWFBvfOgtuWoQnE5sMN7spNH7W7lLMeEYx52+vdjVyb49rjFxvc76c0XvfH6Vl37VbjuYNnG3y8hDl8rsG9kvMjzG9GZ9ypyw3u3NXGuBHs6Vvq3Wuzsm7vqdxxLk3g2sO5OEpdZ/k1RxlX7W1wV3N5Jm3cpevOjV1/O6yVbcHOenc6FydhOF67v8H95IPbdUR9UC9WDuqLejN/0gfiI55Tlxp8PvsvbrzOrHA+mXr49Sg9eNrDtRaJXw2730/O+g5+PdcO3sxZeklhQjdxY+PwGAuRDtltamNn5fp+ixqvp0MDIsZ8Yd/cefxv5kRn4a5696/ey7iPd9S7+lyw5Z83CoKJH8I0dVNjGMSCY4Th6Vw8JmIhiEjv+Vm352SDt1QR70mfNF53KJf+AwMKXxeWC4d47fyiwZcRKxdRRZjIF3ETJizb8xOzXjD3n2lwmVydjFjdGCf1QHmpF+qHeqK+qDfiJoyJn0H+yCdl3pHLA3GThyWf5eopFxTRtnzKtZ1rLRK/GnYmOlgmCExSGHN0dCwzrDgbGuPeW5L1YvNZroMjPmYd2dDQxMc6OOfwIwxhObZ8ICQWL27lnkbrCkG0eLhuYc7yCi2t0CF4R3IWI/ERb7nXJTksPDCxjMuGMyHjk/JTD9QH9WJhqC/qjfqjHu2aY+cbRdvCxe6Z8VlvsYZ1J9d2rrVI/GrYVWL5mUBh9YTD499+lHFncuJpHbQtxQ/RQ/wIlxQPDsuKoSHXIzAMXZPEL74udpSJYTlxcC1DacQXyhU/S4v6oF7CuKk3y1N4jYXBvZLzw2Il3IVrzi3NWX5h3YZh5VrvWovEr4YdnbLcOb/OKH7kA0uLoSFDaOKZtrneD7FNaJKuS3KTc8NlhuKUj9Vthq8MuaEjxM8sa6xGykA4xI/hcqm8y7XMtRaJX427cld7n52Q7fBhL/4IEnNlSfEkncMRT6XiV0rYygljYlzusNfixSXVQbl5l2uZay0Svxp3dNhiv/NjWGy/80ta8MA6ihc8Wip+iEapBY8wHub3GCYSjvAsEgxanvWrzJWK3/z8IszGnAXMvCCLDlhrUK74cZy04LEv/+PxeMEjFD/KyPwev6vkB+eUhbrwdVAi73Itc61F4tdF3B1veOQ63bZjd77hgciU81OXlogfc3WsbOJH/Ek/dYmFAH/CWX4QS4adlYofgsdPVixtfvKCaEEl4ocr96cu4TV2ndUt94EFER4+pfIu1zLXWiR+cq12SUM+Obn2dq1F4ifXaifxk6uGay0SP7lWO4mfXDVca5H4ycnJ1aRrLRI/OTm5mnStReInJydXk661SPzk5ORq0rUWiZ+cnFxNutYi8ZOTk6tJ11okfnJycjXpWovET05OriZda5H4ycnJ1aRrLRI/OTm5mnStReInJydXk661dLj4/YvXkwsiJycnV65DR1pLh4vfI0O1r5mcnFzrHDrSWjpc/Eatab4BpJycnFylDh1pLR0ufiDrT05OrqWuLaw+qIr48Yd1JIBycnKVOnQD/WgLqiJ+BqYrhdEiiJycXCGHPqATbTHUDamq+AkhRLWQ+AkhUonETwiRSiR+QohUIvETQqQSiZ8QIpVI/IQQqUTiJ4RIJRI/IUQqkfgJIVKJxE8IkUokfkKIVCLxE0KkEomfECKVSPyEEKlE4ieESCUSPyFEKpH4CSFSicRPCJFKJH5CiFQi8RNCpBKJnxAilUj8hBCpROInhEglEj8hRCqR+AkhUkmnE7+LFy82c0II0R50OvF77rnnmrn333/fbdiwIe8rhBBtQ6cTv3379jVz48eP9yL48ccf50MI41bGuVdnZN3MrfX5M6IlZDIZt2bNGnfo0KH8mc7NmTNn3OLFi921a9fyZ0RL6HTilwTChwCeO3cuf6Y00zbXu6+/Vtfkvtmzzv10YMYt3l3vGvJh2pOj5xvc/e9l3Nr9rUttzb4G96NcPAfONI/n2q1G4Vuws/MI37zt9e4PU7P5I+femp91T4/NuEwLs7hp06Zmo4DQ4dcW1NXVuZUrV7pjx47lz5RPQ0OD27Nnjxs4cKDPU48ePdykSZPchQsX8iEa41+xYoX3e+WVV9zcuXMrEi3CTp48uekahI/83rqVawDtBHXbVvUbEpel2lRd/MoVtJ49e1Y0/EX8Hh6ccZeuNx5jJU3YUO/u6V3n3l2YbXcBbCvxK8Tpyw1NZessUOdP5cSuPViwYEG7dMibN296gWoJhw8fdtOmTfNtGCEkHizIKVOmeGuyvr7eLV261D+8ESuON27c6KZOnVq2eIWCQRo3btzwn+2JxC+BthY/hrU8McsRNcJVMvSNxc9YtbfB/U3fjNt6pLEBZXNWyZAV9e7ut+rcX/Socz/5ION2ftHoN2BJ1v1mTMbdum3MuBV76t2D72fcFxca3LGcwD05OuOtShzfOQex+CEKvT++HRH+5I9PQMx++9HtuPh+7qrz1xOPhSuV5n39M65bzvr6bp9Gixercd/pRv+YSzece2lKtikuvv/9iIyvOyDPz0/MuocGZbwFB4t21bsf5tKgru7q1fgg4cFC2czK/uu363xeOGdiGKdF+ShzucTihwDs3LnTDRgwwHXr1s1Pj4QWF+FxEydO9BZX79693YEDB/K+jaK3ZMkSb5HhsM5MBENrDUe7I3wMeQiFyMQPwUPozp8/70aNGtVs4Q7RmzBhgrcYk6AMlIUyDR8+3IczwcCNHj3anT592oelPxI/YSnfli1bfLoQxtO3b1+3bdu2RNEkPNdxvdXDunXrmtX15cuX3cyZM5vqsdx0ipUFit2DjqBq4mfCx4JGKXiyEpZryqWQ+CFkT4zM+E4LA5dl3cO5zn3wbIMXwllb693f5obHh3LHe041Djm35IWS/1+YlHU9Zmd9vI8MzfgOTce2zs05/Oj85YofQ9jHh9+Oi+O+i7JeaEPxKyfN771T5wULYSEe0v395EC9AygHwmZln/RJvfuXOUELxe8H/TJu06HGMlzJ9X+GtRxzZuPBBvfDnD/5hNjyC8Vv0PKs+zc5wSPPiOWI1fVeSMslFr8dO3b4IeaVK1d8Z2O+DqHjGAg/ZswYd/bsWe9Px+MYywmrbNasWW79+vX+Ox2ODr9s2TLfqYmb6znP8e7du4u2/YMHD/r2+frrr3vLzoRh//79vrPHHXr58uXexZgwWr44JtzQoUPvED/8Gf5a+RgOjxw50p04ccJls1k3e/Zs9/nnn3s/yky+rl+POkMO6uXDDz9siofhP8dW11wzduxYt2vXrqa4eBgggMXSKVWWUvegI6iK+FUqfIRj2FsJhcQPTIiwrH6WC7P0s+aV/erMrO+sodjB4XMN3upDDLkGkTx1qVEYgO+cw68S8UuKywjFr9I0YdLG5KHo2ZxGIPpcF0LYUPzCPAMieTxn9WL5ImJh+FLi9+tRjRZzSwjFj47E0PL48eP+2MDqQrggFktEEXGk4yEQiFJozfF9+vTp3lojDubmksSiGCYMmzdv9mJA+vPmzfPfQzhP/mIoD4Ie5ov8FrL8iJc84hAM4kSITZS2b9/uvxeCa+bMmePFK4T8Wd0hjtRFKEiXLl3yQ/erV68WTKdUWUrdg46gw8XPhA+HSVzKEQ7hq8Tqg0LiF1p+iAVDNBuuhc46fTjM/WhdvfuH/DA4KX6+cw6/WIhiIcHfxK9QXiEUv0rTBM6HgmQkhYVQzOI887B49MOM+/Y/NQ5tmT74/ru3LcU4rVD8sPj+NCPrh8p/+Wad++P0rDtfwdRPKGZ0nsGDBze1o9BZmFj8wo5nllrs+vTp44UFKwQhZYjHUG716tVecMvh1KlT7qOPPvKCVKnlR77i8GG+cSZ+5AehePvtt92gQYPcsGHDvFVFHMCQE//u3bv7IefevXvvEGHSIW67xgjFj8+kuqL+yU+hdEqVpdQ96Ag6XPx4MlpBseiKOcSvpb/xoyMmCQpzfnRYrLdC1k8IQ8ef5zr80JX1/hMBBK750YDmlgzfOZdkhcVCgr+JH+HLtfwqSRMKiV9LLD+mBB7IpWX5xPIL5wiLiV8IeWbOr9BwPIlQzLAQsCpiyy+kmPglWSWFQMRos0liRSePBSUUv0rn/Cqx/BjmMxzF2gQsM6ywWMjIH+ERpqNHj+bPNlKO5YcfYULLL4k4nVJlqeQetBcdLn5AY8Ka47O9iMUPERu3/s7VXub8sOx2HW88wzwfP9HAyjEQPKwd5v9MeOJ5Opt/4xx+sRAxlLY5L9yfZ2X9/Bzh4rg4TprzqzRNKCR+EM/5jcmXs5D4kR/m+JjrI4XdJxr8AlEofojh1Vx75uctofi9tyTrF5DIM6L5xtysFz+saOrl5WnFhTAWM4am48aNaxIWhmL4m4VWTPxsvskm2Om4R44c8XN7fP/000/9xD1+dHoewEniRx4YfttqL4LHwoAteOAqWe01YYznwYYMGeLzjTPxY9jIHB9zfaRNPWAsIH5cx0ICAmP5Ip+x+EE850d8WJBWd1yLyG7durWpTFyD+BZLp1RZSt2DjqAq4gehAJb7c5dKoCOGw1hWGJN+5xeu9hKOVVJEMgyDIHLe5v6MSlZ7WXFFPEmDtOj8CA/hoK1WeysRPxNP4rGV29/k4iskfsTKw4KwrPY+lhNdLFYLzyr5vbmh8P/zRp23KEPxC/PNtTyYWFRqqfjRQWy1l1EEv7ULh3bFxA+wOGylkVVM5gMZwgFhmKszP66zhZQQ0kII7Hd+vXr18osQdGaD77ZyXM7v/OLV07Vr1zbNVeJM/EibuTaG5sSL6BLOLD/6qq0Eky+G8QhXDOdstdfKimCHdReu9lIO6sbKUCydYmWBYvegI6ia+IEJoF5f6xzY/CHDWyG6OlUVP+CHoqI6YOEyl8kwFIcFzG/44rdJhOiKVF38RPVgKMrPTxiG2g+8NxyQ8Il0IPETQqQSiZ8QIpVI/IQQqUTiJ4RIJRI/IUQqkfilHH6Jz04aSb/+F6IrI/FrA/jFPb+8L/bL/Y6AtxDYton8hG8DFALh440EXmkSIm1I/NqAziJ+IeWIH68XFdvySIiuTJcVv1LvLPLJ+58G72DyorWJRfjuKO8m8o5iofcOY/Hj094Njd+FjCEfvDfJq368FG4veRdLG9EivMXPd6y4UPDsO3vLsdNGUjzh+6/cW8LZe7K8I2rvyQrRFemy4ldqt4pS4seOHWy5U2in4JBQ/IiHv+tgu1Xg+M45vseQj/79+/sdLUxsiqUd74bBMTtusMtHLH7soIHgs+0RDwN2FMGf3TfAxA9/duDg/pIeO6R88sknPm4huipdUvzo6KX2KSsmflhRpXYKDgnFj2sQKttnDfjOuTg+iPNRKu2k+I1Y/Oy7gcWIyNniRix+WHu2I4cQXZ0uKX4IGcPceGPHcsUP4Si1U3BIKH6kSdqhlVcoPxDno1TaSfEbpcQPSMvyYeIHiCr747EjL8NjswKF6KrI8ssTih8WEsPOJEstiVD8uIbNH21oCbYhZFJ8cT5Kpc35trb8Qqg7htnM/3XU31IQohp0SfGDeM4v/qtUCCMigjDR4VlgYO7NxIIhZrGdgkNC8Yvn5HB851zSHFosflAs7faY82MucdGiRU07EiN6WH98njx50gthR24yKURH0GXFj84ervYuXry42d8jRUhYZWUVlDCrVq3yixImfohAsZ2CQ0LxAz4rWe2Nxa9U2uWu9rLDLr/jK7RqbOJHvMRvOxKz6y67BHNe4ie6Kl1W/JKgo5v4CSHSjcRPCJFKJH5CiFSSKvETQghD4ieESCUSPyFEKpH4CSFSicRPCJFKJH5CiFQi8RNCpBKJnxAilUj8hBCpROInhEglEj8hRCqR+AkhUonETwiRSiR+QohUIvETQqQSiZ8QIpVI/IQQqUTiJ4RIJRI/IUQqkfgJIVJJpxM//nC2EEK0N51G/Pbt2+d69uzpHX+EWwgh2pOqix+W3vvvv++ee+45N378eC98fEcEEUQhhGgPqiJ+CJwJXpLQhYKIH98RRiE6A4cOHXKrVq1yN2/ezJ8RtUhVxM9EDREsZt0hghs2bPDCxzU3btzI+5RHtt65cevr3b19M+4vetR595MPMm7pZzmPGuPSdeceHpxxX3+trsl9s2ede2lK1l2qrFqauJLru89OyLjNhxvyZ1rHmn0N7kfvZdyBM8nxHT3f4MvAZ2fh9OnTbsyYMe7KlSv+++jRo921a9fyvneC8NEm6+sra0P8sfwFCxbkjzoeyjR58uSiZSuHs2fPuiVLlrhMJpM/U7tURfzKGdLSwAzCIn6VcCt3b56fmHE/7JdxS3bXeyHk3Kg19e6v3qpzM7fWlgCa+E3bfDvfB882uIcGZVyP2dn8mcogzl+OyLi1+ztGjDqj+IWUEj8EjwdwQ0Pl+e8q4kcdzZo1y9XV1eXP1C5VET+GscUWNWzezwQSIaxU/CZtrHc/yAnf3lN3NtQvLjR4MYRjuY745OiMt6JwfOcc0Env659x3aZm3d05wcRyfGFS1luOxM3xb8ZkvIjAU2Mz3mFd4sc1WJ6WA/yen5j1gvV07jss2lXvfphLg/B39apz7y7MepGOSRI/6P1x1j0yNOOu5qy4pPh3ftEokMT/rTfqfFmwFCnbX79924okHjh9ucFbg1YfsWVJfik71/DZJ3cdAkr+ENH7c5afiRtpW10Qdsy6+mbiV27ZYxCRpUuXuokTJ7qFCxf6c5cvX3YzZ850r7zyiuvdu7fbsmVLM+sMfzo//r169XJr1qzx/qHg8X3UqFH+2gEDBviwc+fObRKMYuKIIGIVfvjhh76tDh8+vFl/KSZ+nMcxwunWrZtPe+/evU0im1Re8jBv3jzXo0cP7/ge5uvChQtN8ZGXPXv2NIkfjnJQHuPgwYPN8pdUX/v37/dlw/Xp06fpetIibxZ25cqVNSGOVRO/cA4vtALNygvPIYZYi5Xwu/EZ9+rM4hYRHRbhsA6O4zvn8KOTfu+d2wKw7WiDu6d3nReZ87l2tut44zCP4R5wnuNNhxrFdc62eh9+3vbGTog/IoA/MOz8Q06MOObMxoMN3lJdsae5wEGS+MWWXxz/oZw/+em7qFFUjudE/4mRCGTG3cpdQpyh5XftlnOPD2+Mj++U+c+zsu4fc4JP+D25B8n3361zQ1c2WtIWH/mKxe/cVeeFz+Kivl6cnPXX419J2WPopHRohmBw/fp1N3bsWLdr1y4vGFhntBlELPTfunWrF7xbt265devWuUuXLt0hfv379/dCRefFLVq0yIsqw7xi4nfkyBE3YsQInyfycObMGTdu3Dj/CaXEj6G3XUtc9BE+zT8sL/maNm2aW7FiRVM++c45vlO+CRMmuPXr1/t8c7x8+XI3dOjQssSvVH2Flh/TBeTdwnLtnDlzvFiHD5/OSFXELxQz5vXC+T+ELxzyQqULHiYUZs0UAgvubwdm3KlLjZ0f+M45/OikdGYTh1gsYkFCfOI0EWCEGJL8TUSwRhEowsTWHVhaZqnhQksO4vhHr613f5/Lb2hNmWDvOdlwR3kQHtI4e8Ufevj+8w8zXviJD7FDCA2uTbL8qL+Hc8IcxsV54ucTyi17DJ0UMTGwarDQws5GR506daoXws8//9zNnj07sTPG4heLG/Fw7vz58wXFj3jnz5/v0wnhGNGBUuIXlgewtBYvXuy/x/7Hjx/3llY4B853zuGHmzRpUrMFGfJcruVXqr5C8UsKe/HiRffRRx/5uuvMVEX8ELzQurNhLo7vMbElWA7lWH50NDojHdcIBa0txA8/zkPsj3X0aE5Yvv1PdX4I+jd9M94yShKAOK0k4vj5bmkbYZni8hB3KK7m/mVuSEqYpPg4nyR+xBXXbSh+lZQ9JhYDvlv7Cd3gwYN9Ry8mPKXEj05OZ8cvyR8Ig7Ak5cHSLZaHuDwQilHsjx/pmQCB5QG/JH/yXK74laqvUPySwibF3xmpivgB1hzOQPTCYyO0EiuhnDk/rJMfDcj4Y4PvnGtLy+/3ueEexP6ztta7B3JpmeWJ9YOlliQAcVpJxPFjqSEwDDuNLUca5zGTLL8kay2kLS2/SsoeE4sB1gdDrSRLBUpZMsXEr1zLj/RJpxDFBCUuD2D5mdUY+2PZMSxliGnYULUalh/D7XD1F+OGuVNZfgWwIW6SpWcUGgaXA52JuS2sCebcEDvOhau9NscVz/lxDr+WiF+pOb9QnBhmMs/FfBcx7j7RuEDQVuLHkBKBief8KCPpESdD2oU7G+sirg/KQN5HrG5ctInn/JhzRLDIVyx+8ZyfzR8yh4p/qbIz4X7ixImmSf+QWAziOSocQ2EWIJL822vOb9iwYe7kyZNN846bN2/25YBS4ldqzi8sL3lBgOI5P87ZHF8454c/5R0yZIjPO6KIP8JFetQDQ2bLX6n6mjJlig+DXxyWYx4E5Cfp3nUmqiZ+YFZd0pDWhsaVzPXF0EFL/c6v1GpvpeKHlffrUY3pJa32huLE+YHLsn6lk/CP5YSH+ca2Ej8otNoLpP/6nKz3Y9X6Zk4gw9VeznMtcRi22osfdYk1mGT5Qbja+5dv1rnuOSuY+PAvVXZ+RMwEPZ0pJhYDCFd7k1Y/y13tZWGBjsuKcWtWe/v27dtsxbmU+GHlkRZpJq32xuUlD+Wu9pKXtWvXeoGzMAcOHPBlxJ+FGQyMMH+F6gtRt/Nm6Wq1t4WYAPKJ4OH4TgNKGgZ3ZpLEp6uDWLE6zuptW0LnoxNls12/PpPETbQ/VRc/4KmD0CGCiJ6JYa3R1cWP+bmXp2X98Bf4xJJrjzIzGmCeLQ1I/KpDpxA/AxGsRdEzurr4IXkM4xnOswrMULZnbtjMnJ5oORK/6tCpxE8IIToKiZ8QIpVI/IQQqUTiJ4RIJRI/IUQqkfgJIVKJxE8IkUokfimCV5viF9o7A0ePHvVvc7QVlC98+b69KPa6Wy1AnVP3aUXilyI6q/iFO4q0BRK/8qDOqfu00mXFj5ewebHcXlDnZWx2l7Vf0vMZdjg6Ch3GhIGXynfu3OlfMuflb14S5wXuQoQv1sfbqBM3L8vbS+i8xWLbDZEHnL2EHr/UXiwfJmbs3oE/DZnwXD9w4ED/qmAYn4VntxFe4E8qF/eY7Yjwi8sRvyy/bdu2pnyGxHngMyxTCPeBMDjbf49wldQ9eQ7Lwwv3ofhR1/zRHat/2w2FTRN4qZ/dYwzKysakVrZi5TDxYzeWYvFAsfZBHdA+bWMD0mFbqtWrV/v8vvvuu007vAB1UWgjgWJtzSAM6Vm90/6SHoxt/VDqbHRZ8WNLI3bYCLcVZ5eQcsVvx44dfk80tunmenbsoMFxHGPb+hTaRp24SIs0aPC7d+9uqkvOF9vOqFg+aLBsU0QcbDsEV69e9TuisP0Q4Q8fPty0t5qF5yFAHsnLxo0bfaOnDGx/REcK62zkyJG+U7PBAHu82TZIXM+1Sbuu0GnC7Z345LiQlRF3skrqnnJxn63uCUM+6dzUt23/FG/vtGzZMl9+zvOda4GNNbgfxFuqHKHlVyyeUu2Dtjho0CAfP3ni/iH8tAG7R4S38hXbNr5YW4shnJVF4nebmhY/bnrS5pI0snLEDyFhzzKeviFs60Pjiim1jTrX4J8kFOTB8mTYFual8pHUYME6BY44rFxJ4W1vN5v7oYPZtcRjHcTEb/v27UV3WrG6p9OFcMz5sI6MsJNVWvfc4zheymeWH8KNEIbWD9+nT5/uN04IRQq4F4gYZSxVDtIx8SsUD/VZqn3EbTEWHY5NzClvvNFouG18sbYWY/cWJH63qWnxo5HQWOzGGjQyE5q4wYXiR0NgCGbDgtDZ9SGcSwprwzjipvMy3GG4yHDGLDXyEMdpja5UPpIaLMMrLL1+/fp5a4LhINablStJLK0TkCdE4e233/bXYuVgLVs9MtzCv3v37j7epKFsobrn2DpwjJUXWlL34X0EymfiR9xJcdlfH0NEbHhK+REkBLOccnC9iV+heKBU+4jLENYHhGkmlTe8r4Qp1NZiiMfKl9Q24nx0NWT55aHRmPhhGTDsiq2PQiRZH4XgicwQptAW5UDjxb9UPpIaLEOp0DLAssCSIkxS+NDyY3jJ8IxrgDiIyzqIgeARBwIYrxZa3dtcl8FxoToKO1lb1D15M/EjHuIj3kIwNcCwGguNT8SinHKQjokfJMUDpdpH3BZj0eHYxI+4yt02Pm5rMaRh91bid5suN+d37Ngxf2xCQyOigdrwjgl2tjC3m8/wgUlshhRAw+LapKcocYRbeeNIHzGBTz/91HcaGi9+bN0Vih/DpWJzfoXykdRgSRcxs/myU6dONYUhfLE5PywVrETm+riWNFlAoBOQdxYNEBP8CI+oJv1UgrwnzZVZmWKIH5GlQ5OnSuoev3DOj3LR4U0sbM7PFjkIQz4YvvIdiJe2gMUbil2pcsTiVyieUu2jEvGL4+IYYaV85LFYW4shDeqBIT71Vmxr+65IlxU/bjxWEOY/q2LMoTHRbeJHQ2X1zVY1mWTmiWpCQgOwFUeGKMVWLCFczWOVLdxWnE/bchx/GrJN3tO4aJy20heuzkKxfCSJH+XGcrTVPoZiNGITPywEFjWSVlKJkzk9qzPKw7V0PuD+20pwuLV5DPGQx0KrpDGkjxX51ltvNYlrJXVPvrjewrL4YJYfYPXZai/lokzx6jHXcC2d3ihVjlj8ICkeKNY+KhE/KLbaW6ytxXz22Wf+etoAdVRqa/uuRpcVvyRoZCZ+nQUaV2fLkxBpQOJXZSR+QlQHiV+VkfgJUR1SJX5CCGFI/IQQqUTiJ4RIJRI/IUQqkfgJIVKJxE8IkUpSJX7hT134XLhwYeIbCkKIrk9qxU8IkW66rPiF7/byniMvfofv9vJp7y3yjibvhhKGbYB4t5H3MO1Fet7l5CV0XqDnHU/ChnVBPGwWwPuWWJMQvmMZv8sphKg+XVb8Su3qEosfO7pwjhfEeckbIbPNM9nFY8SIEc12OObFbz6BeBBE/IE42CTBdhLB8Z1z9gK6EKK6dEnxw+pjmx+25wlB3AqJX7w7B1s9EYa42BkljovjcFsqixfYmQTxtH3xgO+cK3efOiFE+9IlxQ/riq18bCsmoxLxs7AWF8Pd2Nn1sfjFWxBBoTwJIaqDLL8cxcSvUFwhSZYfG06y0aRhm1DK8hOic9AlxQ/iOb9if72tmPhBvKMvQ1j+/CMbVEIsfvHuwTi+cw4/4mGOMN5QUwjRcXRZ8QtXe21H20J/t7eU+MWrvawIEzdpQCx+QFyFVnslfkJUny4rfkIIUQyJnxAilUj8hBCpROInhEglEj8hRCqR+AkhUonETwiRSiR+QohUIvETQqQSiZ8QIpVI/IQQqUTiJ4RIJRI/IUQqkfgJIVKJxE8IkUokfkKIVCLxE0KkEomfECKVSPyEEKlE4ieESCUSPyFEKpH4CSFSicRPCJFKqip+H3/8cVlOCCHamg4Xv3PnzjW5999/3/8R8J49eyY6/Ahj4YUQoq3ocPHDkkPUzCFyhTABNCcrUAjRVlRN/Pbt2+fGjx9fVPxM8AhLOImfaGvOnDnjFi9e7K5du5Y/I9JCVcTPBA9RQ+CShrScM5GESsVv2uZ69/XX6tyAJdn8mdtsOdLg/vLNOvfU2Ez+THVZu7/B/XJExl26nj9RAb0/zvpymvuLHnXuJx9k3M4vGvIhWscfpmbdvO31+aP2ob6+3m3ZssX17dvX3/NevXp5Qbpy5Uo+RPtw+vRpt3TpUnfr1q38mfKhfU6cONG98sorrlu3bm7IkCFu7969rqGhsd6PHz/uH+749+jRw82aNctdvnzZ+0Emk3Hr1693vXv39tePGjWqTfpXSzh79qxbsmSJz1Oa6HDxM8HjMxa4kA0bNjQTxkLhCoH4feuNOvfQoIw7dzV/Mk+P2Vn37X/qOuIXluNarh9TPgQwLndLIG7qsj3ZtGmTF4pLly754+vXr7vly5e7FStWNIlJW0O8N27caFH8WIlTp0717RHhJo5Dhw55AcSSpM2OGzfOHTlyxPvX1dW5devWuQkTJnihJTzHiCdltuuHDRvmr+9oeAggzuQzTXS4+NEwsOLM+uOThh9jw2PCs+hh4cuFDosAICqzP73deb+40OAe/TDjnhmfaSYae081uMeGZ7zldFevOvfuwqy7lfdGnO7rn3HdZ2bdd/vU+eNsLkqsSixIrvlhzn/DwcaOdOx8g3tydMZ9s2ej369HZfw5Y9GueveDfo1pkcfRa+ubiR9WG6KNPwLeLWd9XbrR6BcTix+Qv++/W+c2H264w580SIswgB/O0qPskz+p9+EeHpxpsigtjrBsOL5b2agv6o04iIvrqddSYOWtXr26mRDx3Y7pnKNHj242NEUwcbBgwQLvaEdYUR999JEXkfnz53vL68MPP/TWDRAnFtrAgQN9+xowYECTxWYWKNYY102ePLmZtRZCWINrES/SN2s19IeLFy+6ESNG+HwhumPGjHGHDx/O+zbGQR0g+jGUG8tw5cqVPr+UkbQuXLjQ5E/9UE/GwYMHfZ0A54cPH+4fJljXXD9z5kwvxISjHnB9+vRpioO4zbLFEidtE0c+iQuLFkdfvXnzpverJTpc/CAUQCqdT7PwDDtvn5VYfYD40fnGb6j3HfdWfvT70bp69+LkrOs9/7YoHM8J4gMDMm7oynovaqcvN7jffpTxHRkQCizF1+dkvWUFA5dl3YPvZ9yu47lOmjtmaMg5rh+yot6NWlPvxeB8rr8iflhjsCcnBgiTpXXwbIP7+5wYkVcE51Du+EfvZVzfRY3iS96eGJlxz0+8XYaQUpZfOeJHepsONQr6mFz9cHzy0m1/s/y49pGhGffSlEYxxvGdc/hRBz/LlYM8E9es3ENn7PrGa4tBh6NTIwibN2/2Hc+ED8oRv7Fjx3qBYeiGFUNnR/A4xn/jxo0+7NWrV92qVauaLC4ECGHh+OjRo27KlCne8jS/PXv2+OuSID+DBw/2bRQxCfMXQ1yUD+EjftJkaByyf/9+L7ixBUa8WJUM0bnehszUCXGVI379+/f39UXcCBXCtmPHjib/0PJDwMnr1q1bvYiTxpw5c3z6HHMdcROe4927d7eZNnQkVRE/QOxs/s8EjuOkcy3BxO/AmUZLj3k+hAEhWbGnvpkoIIgIVCgue042+E6NCCAU9+cE4Wjewjmbe7g/nLOUFu4s3LERHsIjCuTF0sLKIw9hWsRvlh/+iKFZnYDAIkjkKYZyxHN+WHE251eO+BHGQHy53soait/Sz+rd3w7MuFN5YQS+cw4/xI9rd59ofCBUAp3o2LFjfu4J6wRr7dSpU96vHPGz7xD6Ad9NCMA6NA7rh45PGogfooCIhuJbCuLbuXOnmzFjRuL8IdYjYmxiQ3iEhLQQGtJiiEyZC4lfLG4IGENrLM5yxC+uPx4GVkf4h+L3+eefu9mzZ/t8GtQJFjUPCcoxd+5cX3+1TNXEL8SEEMHD8T22BCvFxI/OjiXEEBXRQ3gQwVAUYgEx99dv13kRiMWPT45NQEI4g8XIcJUhMg4rLEwrFCMIxS/Jv1h6SeFDYv9S4kda1JuVFX8Tv7BODb5zDj8Em3q++63G4TpTC1i2lYIY0DHNUkrqvKHAVSJ+CBFWV79+/dygQYO8KI0cOdKnQWfftm2bt0IrXXRBOCZNmuTFKATRIO9Ym6GYIJIIvQ0dGUZiZWJ5xgsPSeIGlAmRa4n4hXWEfyh+YX0ZYRqEW7NmjZ8e4EHFcD1J9Ds7nUL8DOb2kub/WkLYUbH6fp6z/n4zJuMGLW/s6KEoJFljIbH4FbP8mFNkfjD0G76qMssPS9WG10D+ibOQ5ReKW0xbih/W3Y8GZHwZDb5zDr8QLN8/z8r6edSwLEkkLTyEHbZU561E/JjTC60a0kZwSCOEzsyiBMPZbPbOhhEKGcTiR3kQIIabDOXLsSQZyiIqMUnihuXHAgrWapJ/a8QPy2/atGnNRBhjxKYHQrD+MFaS5io7O51C/FjZNcuPoS4CyLnWEIofQoPwYYUx5wahKNicn82z4ZirmrW1sYHH4geF5vyYL2ToNzgnssx7IQKvzridVjznZ/OLltc4Lzbnx9xaUvcpJX6IKcNS4iE+5iOxzCoRP8T7Zu7aqzkRezwnZvGcH+cQuCmb6t1rOcGjTJSNeU+G8PgxzGLeKBYSOhxDPQTJhpsIEu0B4aED0uFYLKD94c+iwdChQ5s6byXih3WFaNhwk6G1CceBAwe84JkY2/AvzjNCgFVqq704RJV4iJc8034RPkQoSfhOnjzpRZHycz1pUUbqIAbRKjbnZ0JIHKRFfTGkrkT8bK6TvPDJHGo852er759++qm3kC3vlBXx4ztpYuXWAlUXv/AVN76bs3MtJR6iseLLqqk1w1g0wtXeeBUzSfzo3IVWe/lkNZehM0L37ITmK8u22os/gsyw3Cw/aO1qbwji+9iw2yu5L0/LesuyXPEbmRMw8sDQHVErttpLHskr4eM6KSR+gJXF0Cn8nR8rtdZZ6XB0RIaHrD4iigiBdd5KxI8OinVlw03SQSgQADozq5qkb7+9K/TTEwSQ68gPju+2+orgUY7YhaupCJYNe+PrY8yyQywZpservYBw228GmQtEkMoVPwSVBxD5QECh2Gov8cybN68p71yL6Ev8KsCsvaSVXBoXfq21AIWodUz8TDhF21BV8ePphXVXyCF+WIFCpBmJX/tQVfHDqsP6K+Zk+Ym0I/FrH6oqfkIIUS0kfkKIVCLxE0KkEomfECKVSPyEEKlE4ieESCUSPyFEKpH4CSFSicRPCJFKJH5CiFQi8RNCpBKJnxAilUj8hBCpROInhEglEj8hRCqR+AkhUonETwiRSiR+QohUIvETQqQSiZ8QIpVI/IQQqUTiJ4RIJZ1C/PjzlOHf8OVv9epPVgoh2pOqit+5c+e80PHHyRE/+zu+do5PwgghRFtTVfFD3LD09u3blz9zG87hhxhKAIUQbU3VxA8rD+suSfgM/AijIbCIqa+v9+3is88+cw0NDfmznYfOnj9RRfFjmIvlVwrCELZSaHB79+51/fv3d6dPn/bnrl275hYvXux69erlunXr5oYPH+4OHTrUZRsn5Z41a5arq6vLn6lNzp4965YsWeIymYw/NmHh3rWW1tTRrVu33MyZM31bWrNmTf5sY/5Wr17dLH+bNm1yCxYsyB+VhjgWLlzorxPtQ9XEz4a0pbCFkEow4fvggw+axI+OM2fOHN+YaLSEoXEOGjTInThxIn9l16KriF9cDj65h21Ba+qI9jNt2jR/bfgATcpfpeIn2p+qil85Fh0CWan4YeHNnj3bi9ro0aN9AwcaaNhIeboSbsuWLfkztyGOUaNGuZUrV7oBAwa4V155xS1btswdP37cW4w87efPn9/UaUxMP/zwQz9UJ0xYX3znHH4DBw50Bw8ebMrL5cuXvQVBGr179/b5IW9A/CtWrHA9evTwjvq4efOm94uxNMgbdfv5558369jF0omJ0+U7dUW+zZ+6MSua9C5cuOD9qG/qbu3atb6sHJcKT75Jo2/fvt6ffCIgpEed4fr06ePDhkJCHfKgIx3CcK84Du9zSFvVEXmI80WbmTdvnq8vrp87d64/Z+GpP6vTOO6kOqOMXAeUh7qwcvJplmWxdEVhCulZpxn2InzlhEuCBhCKX8z169e9/9GjR/NnbsO1Q4YM8Y2VjnH+/HmfDxoknfLixYvuo48+cqdOnfLhjxw54kaMGOGHaDTUM2fOuHHjxvnPGzduuAkTJvj6w+/SpUvuk08+8dYoeRg7dqzbtWuX9yMsAmeCvGPHDp8meaCj7N69O/E+ECfCa/FcuXLFd7bJkyf7a0ulE7N+/Xo3ceJEHw/hDxw44Du5iR/l5Vriphx0Wh4G5JH6fvfdd/3Q1IaqpcJjodPR8UfcSZuyA/6hQIXid/XqVbdq1SpffvJ5+PBhLyIcx7R1HVEXlg/YuXOnF1PKRBtBhKhHIM+MMqgH4kb4EeGwjHGdheLHdcOGDXMnT57019POCJvNZoumKwpTNfErZzHDwhRbFClGMfGjoTCPxFPeGltIfC2dgw4YHtNp6ADERUemAYZwvHz58ibxs7Ahe/bs8Y01PE8nnTp1qr+OzoE/HbMYpMWwPownFI1S6YQgPpMmTfJWbgid0cQPiJd6InyYFt+pO/xCKgm/cePGpo4fhoVQ/IAyUT84On94n0Laso4gFj+gbJSD+EL/OM9AfmbMmOEFLKkOCM915Id88+ArRKF0RWGqJn78fAVhw7JLEkATPlxLf+pCY0gSP8QO4cMy4+mfRHwtjSrsVByb+Nl3y2/orBEiJKTXvXt3b/VSlzzBadxJ1w0ePLipMTOZzjCJISET6XTwmKTOFXbsUumEFKo34jfx279/v88T86oMwbCCp0+f7tPiurgjVxqe/OIgLAeEZWWYiqXXr18/b1lhTY0cOfKOvENb1hGEIsO9xEJkWE/5cNxn8y+VdlIdEJ7r8Le2FlMqXVGYqokfN4ghBZ80MIaUdowgcs6+F7MOi5HUieksWGFMVPO0LER8LQ2wkPjZkzm2/JIgLHM1dFKG0knWSCGwbKgjrMmYUlZNJelQL8UsPx4eU6ZMaWaJHDt2rKCYVRoe6PQ4CMsBoZDQ8Rm6Wrmw0EjL7lNIW9YRhOLHvUGEKZdBec0/SfxIr7WWX6l0RWGqIn7MlyFuiBoWXmjlIXY4O48ocsw1lRIKGE9I5k2IjzmipKFuSCXiB/GcDJ1w8+bNXmyxLhctWuQtWPwQPYSdTxov80xbt271jRzH8Msmsz/99FO3bds2nx5+1FmS+MXzWaSPUJJHri2VTkw850dY5qRM7BnmM29HPdJ5t2/f7oeHpBV35ErDQyx+CBplIK5QSMgXDzPLJ3Ow4X0Laes6CsUPa9zmKYmbYyx28yfPpeb84jow8YNCc37kuVi6hCcdW1wSt6mK+PGkNpHDmYUHCATfTRAtDAJQKaGA8Z3hi4ls6KyBhYTXAp2jmPjR8OgkttrLEBWrhA6EX7giiR+dn/MQrjCyYsfKnXUCPsOVPNIsNFTn/tDQSYO0ELDQYiqWTgzXxCuThLfykgc6HaumrLDa/CnXJXXkSsNzT+y+IFKUm3xjLXHeOjf1S2cnnzhElnTsPsW0ZR2F4gcsblnctAPKGIofZWBOkbiTVnuLiR9thfSsDfFpolwsXYlfYaoifiEIGzeNJ7BhYhieE9UFcaDzFrKChKg1qi5+mO4IXYhZf6J6YKkyPLThHz+nYG6pkNUpRK1RdfGDpAWNlq7wiraB4ZcN0XBY4wyvhOgqdArxE0KIjkbiJ4RIJRI/IUQqkfgJIVKJxE8IkUokfkKIVCLxE0KkEomfECKVSPyEEKlE4ieESCUSPyFEKpH4CSFSicRPCJFKJH5CiFQi8RNCpBKJnxAilUj8hBCpROInhEglEj8hRCqR+AkhUonETwiRSiR+QohUIvETQqQSiZ8QIpVUJH6nTp1ymUwmfySEELUJOoaeJZEofhcvXnRXrlzJHwkhRG2CjqFnSSSK361bt9zJkyfzR0IIUZugY+hZEoniB6jlhQsX8kdCCFFboF+FrD4oKH5w9uxZCaAQouZAt9CvYhQVP0A5MR0ZO2sRRAjRWUGf0Cn0qpjFZ5QUP2DMTGSsmrBsLCcnJ9fZHPqEThWa44spS/yEEKKrIfETQqQSiZ8QIpVI/IQQKcS5/x8iNxF7DDZx/gAAAABJRU5ErkJggg==;" parent="_b09c1x872EprbhSuXnM-1" vertex="1">
          <mxGeometry x="660" y="250" width="286.62" height="540" as="geometry" />
        </mxCell>
        <mxCell id="4wWyMQQ_N52SvYVw-u0N-12" value="" style="rounded=0;whiteSpace=wrap;html=1;" parent="_b09c1x872EprbhSuXnM-1" vertex="1">
          <mxGeometry x="140" y="970" width="730" height="100" as="geometry" />
        </mxCell>
        <mxCell id="4wWyMQQ_N52SvYVw-u0N-13" value="" style="ellipse;whiteSpace=wrap;html=1;aspect=fixed;fillColor=#dae8fc;strokeColor=#6c8ebf;" parent="_b09c1x872EprbhSuXnM-1" vertex="1">
          <mxGeometry x="820" y="1030" width="80" height="80" as="geometry" />
        </mxCell>
        <mxCell id="4wWyMQQ_N52SvYVw-u0N-14" value="" style="rhombus;whiteSpace=wrap;html=1;fillColor=#fff2cc;strokeColor=#d6b656;" parent="_b09c1x872EprbhSuXnM-1" vertex="1">
          <mxGeometry x="150" y="980" width="20" height="20" as="geometry" />
        </mxCell>
        <mxCell id="4wWyMQQ_N52SvYVw-u0N-15" value="" style="rhombus;whiteSpace=wrap;html=1;fillColor=#fff2cc;strokeColor=#d6b656;" parent="_b09c1x872EprbhSuXnM-1" vertex="1">
          <mxGeometry x="180" y="980" width="20" height="20" as="geometry" />
        </mxCell>
        <mxCell id="4wWyMQQ_N52SvYVw-u0N-16" value="" style="rhombus;whiteSpace=wrap;html=1;" parent="_b09c1x872EprbhSuXnM-1" vertex="1">
          <mxGeometry x="210" y="980" width="20" height="20" as="geometry" />
        </mxCell>
        <mxCell id="4wWyMQQ_N52SvYVw-u0N-18" value="lorem ipsum lorem upsum lorem ipsum lorem upsum lorem ipsum lorem upsum" style="text;html=1;strokeColor=none;fillColor=none;align=center;verticalAlign=middle;whiteSpace=wrap;rounded=0;" parent="_b09c1x872EprbhSuXnM-1" vertex="1">
          <mxGeometry x="170" y="1020" width="360" height="30" as="geometry" />
        </mxCell>
        <mxCell id="4wWyMQQ_N52SvYVw-u0N-19" value="" style="rounded=0;whiteSpace=wrap;html=1;" parent="_b09c1x872EprbhSuXnM-1" vertex="1">
          <mxGeometry x="140" y="1139" width="730" height="100" as="geometry" />
        </mxCell>
        <mxCell id="4wWyMQQ_N52SvYVw-u0N-20" value="" style="ellipse;whiteSpace=wrap;html=1;aspect=fixed;fillColor=#dae8fc;strokeColor=#6c8ebf;" parent="_b09c1x872EprbhSuXnM-1" vertex="1">
          <mxGeometry x="820" y="1199" width="80" height="80" as="geometry" />
        </mxCell>
        <mxCell id="4wWyMQQ_N52SvYVw-u0N-21" value="" style="rhombus;whiteSpace=wrap;html=1;fillColor=#fff2cc;strokeColor=#d6b656;" parent="_b09c1x872EprbhSuXnM-1" vertex="1">
          <mxGeometry x="150" y="1149" width="20" height="20" as="geometry" />
        </mxCell>
        <mxCell id="4wWyMQQ_N52SvYVw-u0N-22" value="" style="rhombus;whiteSpace=wrap;html=1;fillColor=#fff2cc;strokeColor=#d6b656;" parent="_b09c1x872EprbhSuXnM-1" vertex="1">
          <mxGeometry x="180" y="1149" width="20" height="20" as="geometry" />
        </mxCell>
        <mxCell id="4wWyMQQ_N52SvYVw-u0N-23" value="" style="rhombus;whiteSpace=wrap;html=1;fillColor=#fff2cc;strokeColor=#d6b656;" parent="_b09c1x872EprbhSuXnM-1" vertex="1">
          <mxGeometry x="210" y="1149" width="20" height="20" as="geometry" />
        </mxCell>
        <mxCell id="4wWyMQQ_N52SvYVw-u0N-24" value="lorem ipsum lorem upsum lorem ipsum lorem upsum lorem ipsum lorem upsum" style="text;html=1;strokeColor=none;fillColor=none;align=center;verticalAlign=middle;whiteSpace=wrap;rounded=0;" parent="_b09c1x872EprbhSuXnM-1" vertex="1">
          <mxGeometry x="170" y="1189" width="360" height="30" as="geometry" />
        </mxCell>
        <mxCell id="4wWyMQQ_N52SvYVw-u0N-25" value="" style="rounded=0;whiteSpace=wrap;html=1;" parent="_b09c1x872EprbhSuXnM-1" vertex="1">
          <mxGeometry x="140" y="1310" width="730" height="100" as="geometry" />
        </mxCell>
        <mxCell id="4wWyMQQ_N52SvYVw-u0N-26" value="" style="ellipse;whiteSpace=wrap;html=1;aspect=fixed;fillColor=#dae8fc;strokeColor=#6c8ebf;" parent="_b09c1x872EprbhSuXnM-1" vertex="1">
          <mxGeometry x="820" y="1370" width="80" height="80" as="geometry" />
        </mxCell>
        <mxCell id="4wWyMQQ_N52SvYVw-u0N-27" value="" style="rhombus;whiteSpace=wrap;html=1;fillColor=#fff2cc;strokeColor=#d6b656;" parent="_b09c1x872EprbhSuXnM-1" vertex="1">
          <mxGeometry x="150" y="1320" width="20" height="20" as="geometry" />
        </mxCell>
        <mxCell id="4wWyMQQ_N52SvYVw-u0N-28" value="" style="rhombus;whiteSpace=wrap;html=1;fillColor=#fff2cc;strokeColor=#d6b656;" parent="_b09c1x872EprbhSuXnM-1" vertex="1">
          <mxGeometry x="180" y="1320" width="20" height="20" as="geometry" />
        </mxCell>
        <mxCell id="4wWyMQQ_N52SvYVw-u0N-29" value="" style="rhombus;whiteSpace=wrap;html=1;" parent="_b09c1x872EprbhSuXnM-1" vertex="1">
          <mxGeometry x="210" y="1320" width="20" height="20" as="geometry" />
        </mxCell>
        <mxCell id="4wWyMQQ_N52SvYVw-u0N-30" value="lorem ipsum lorem upsum lorem ipsum lorem upsum lorem ipsum lorem upsum" style="text;html=1;strokeColor=none;fillColor=none;align=center;verticalAlign=middle;whiteSpace=wrap;rounded=0;" parent="_b09c1x872EprbhSuXnM-1" vertex="1">
          <mxGeometry x="170" y="1360" width="360" height="30" as="geometry" />
        </mxCell>
        <mxCell id="_b09c1x872EprbhSuXnM-7" value="" style="rounded=0;whiteSpace=wrap;html=1;fillColor=#fff2cc;strokeColor=#d6b656;" parent="1" vertex="1">
          <mxGeometry x="50" y="1560" width="1020" height="140" as="geometry" />
        </mxCell>
        <mxCell id="_b09c1x872EprbhSuXnM-8" value="" style="shape=image;html=1;verticalAlign=top;verticalLabelPosition=bottom;labelBackgroundColor=#ffffff;imageAspect=0;aspect=fixed;image=https://cdn3.iconfinder.com/data/icons/2018-social-media-logotypes/1000/2018_social_media_popular_app_logo_instagram-128.png" parent="1" vertex="1">
          <mxGeometry x="150" y="1605" width="40" height="40" as="geometry" />
        </mxCell>
        <mxCell id="_b09c1x872EprbhSuXnM-9" value="" style="shape=image;html=1;verticalAlign=top;verticalLabelPosition=bottom;labelBackgroundColor=#ffffff;imageAspect=0;aspect=fixed;image=https://cdn3.iconfinder.com/data/icons/2018-social-media-logotypes/1000/2018_social_media_popular_app_logo-whatsapp-128.png" parent="1" vertex="1">
          <mxGeometry x="200" y="1605" width="40" height="40" as="geometry" />
        </mxCell>
        <mxCell id="_b09c1x872EprbhSuXnM-10" value="" style="shape=image;html=1;verticalAlign=top;verticalLabelPosition=bottom;labelBackgroundColor=#ffffff;imageAspect=0;aspect=fixed;image=https://cdn3.iconfinder.com/data/icons/2018-social-media-logotypes/1000/2018_social_media_popular_app_logo_facebook-128.png" parent="1" vertex="1">
          <mxGeometry x="250" y="1605" width="40" height="40" as="geometry" />
        </mxCell>
        <mxCell id="_b09c1x872EprbhSuXnM-11" value="" style="shape=image;html=1;verticalAlign=top;verticalLabelPosition=bottom;labelBackgroundColor=#ffffff;imageAspect=0;aspect=fixed;image=https://cdn4.iconfinder.com/data/icons/evil-icons-user-interface/64/share-128.png" parent="1" vertex="1">
          <mxGeometry x="95" y="1605" width="40" height="40" as="geometry" />
        </mxCell>
        <mxCell id="_b09c1x872EprbhSuXnM-12" value="" style="shape=image;html=1;verticalAlign=top;verticalLabelPosition=bottom;labelBackgroundColor=#ffffff;imageAspect=0;aspect=fixed;image=https://cdn3.iconfinder.com/data/icons/2018-social-media-logotypes/1000/2018_social_media_popular_app_logo_twitter-128.png" parent="1" vertex="1">
          <mxGeometry x="300" y="1605" width="40" height="40" as="geometry" />
        </mxCell>
        <mxCell id="_b09c1x872EprbhSuXnM-13" value="copyright @ 2023 -&amp;nbsp; by Edu" style="text;html=1;strokeColor=none;fillColor=none;align=center;verticalAlign=middle;whiteSpace=wrap;rounded=0;" parent="1" vertex="1">
          <mxGeometry x="490" y="1605" width="200" height="30" as="geometry" />
        </mxCell>
        <mxCell id="_b09c1x872EprbhSuXnM-14" value="" style="verticalLabelPosition=bottom;shadow=0;dashed=0;align=center;html=1;verticalAlign=top;strokeWidth=1;shape=mxgraph.mockup.misc.map;" parent="1" vertex="1">
          <mxGeometry x="900" y="1580" width="120" height="100" as="geometry" />
        </mxCell>
      </root>
    </mxGraphModel>
  </diagram>
</mxfile>
